<svg xmlns="http://www.w3.org/2000/svg" width="200" height="300" version="1.0"><path d="m268.718 244.707-3.503 5.004 27.022-2.502 94.076 8.007 15.513-30.025 8.507-7.506-1.001-99.08-40.032 1.501-2.002 13.511 25.02 3.003-1 6.505-12.51 7.506-3.003 1.501 8.507 2.002-3.503 14.011-17.514 5.004-4.504 2.502-1-8.006-3.504 1.5-.5 4.004-7.506-5.004-27.022-32.026 6.005-1 4.503-4.504 2.502 7.506 5.505-1.001 3.002-8.007 2.502-1.5 1.502-19.517.5-8.006 1.501-14.512-1.501-4.504-11.009-12.01-10.008-7.505-7.506-5.004-6.005-3.003-7.506 2.502-8.507 4.003-2.002 4.504-5.004 6.505-1.5 5.505-5.505 13.51-.5 11.51-1.002 13.01 7.006 6.006 1.501 4.003-1 9.007-6.005 4.504-30.525 83.568 3.002 1 16.514 2.502 24.02 1.502 3.002 1-10.509 6.005-17.514 11.01z" style="opacity:1;fill:#fff;fill-opacity:1;fill-rule:evenodd;stroke:none;stroke-width:0;stroke-linecap:round;stroke-linejoin:round;stroke-miterlimit:4;stroke-dasharray:none;stroke-dashoffset:46.99999809;stroke-opacity:1" transform="translate(-221.681 -.508)"/><path style="opacity:1;fill:#8e0050;fill-opacity:1;fill-rule:evenodd;stroke:none;stroke-width:0;stroke-linecap:round;stroke-linejoin:round;stroke-miterlimit:4;stroke-dasharray:none;stroke-dashoffset:46.99999809;stroke-opacity:1" d="m-70.644 44.603-22.437-28.678-12.903-6.047L-116.52 7.4s-15.807 6.25-19.751 9.783c-3.945 3.534-7.52 10.67-7.52 10.67l-1.86 8.677-3.718 16.115-1.86 3.718-1.239 6.198 1.86 11.776.62 4.339s-1.598 12.324-1.98 15.248c-.263 2.64.516 5.062 2.24 5.705 2.298 1.464 12.755-.5 12.755-.5l8.057-4.339-1.24-3.099-8.057-2.479 6.198-13.016 11.776-9.296 4.339 1.859 4.34 4.094 22.245 5.61 13.407.946 10.21-1.353 4.959-3.1 8.057-6.817 4.339-3.719 7.078-5.089 4.518-2.691.18-13.912-8.058-6.198-4.338-6.198-3.719-12.396v-5.578l-4.339-4.338-4.958-3.719-10.536 2.48 2.479 7.437-1.86 2.479v19.833l1.252 8.074z" transform="translate(169.87 130.4)"/><path transform="translate(-221.681 -.508)" d="m389.813 145.094-11.157 4.406-2.937 4.406 12.031-.281 22 1.875v-7.375l-7.906-1.25-12.031-1.781zm4.093 30.25-.594 1.469 4.72 3.5 11.718.968v-4.906l-15.844-1.031z" style="opacity:1;fill:#142194;fill-opacity:1;fill-rule:evenodd;stroke:none;stroke-width:0;stroke-linecap:round;stroke-linejoin:round;stroke-miterlimit:4;stroke-dasharray:none;stroke-dashoffset:46.99999809;stroke-opacity:1"/><path transform="translate(-221.681 -.508)" d="M310.031 53.906c-.329.003-.5 1.133-.5 1.438 0 .261 7.949 2.835 11.906 5.218 1.252.754 3.516 3.182 5.375 4.938 1.86 1.756 3.598 1.35 4.063 1.688 1.256.913 7 6.463 7 7.156 0 .33-1.462 3.32-1.875 3.875a17.865 17.865 0 0 0-1.344 2.156c-.323.64-.744 1.188-.937 1.188-.193 0-.356.311-.344.718.018.613.154.592.719-.219.592-.85 3.963-3.468 4.469-3.468.34 0 6.25 2.803 6.25 3.344 0 .296-4.393 3.79-6.094 5.53-1.701 1.742-3.694 4.063-4.438 5.157-.743 1.094-1.762 2.283-2.25 2.625-.954.669-1.569 1.608-4 6.031-1.69 3.075-1.793 3.896-1.937 13.75-.044 3.004-.205 4.125-.594 4.125-.293 0-.66-.655-.813-1.469-.387-2.066-1.207-1.92-.875.157.19 1.185.078 1.78-.375 2.156-.812.674-.91.34-1.25-4.031-.223-2.869-.124-3.808.625-5.813.636-1.698.759-2.583.47-3.125-.3-.56-.198-1.036.406-1.781l.843-1-1.187-.719c-1.157-.702-1.178-.69-1.906.5-.407.665-.75 1.628-.75 2.125 0 .497-.476 1.717-1.063 2.719-.694 1.184-1.042 2.368-1 3.406.038.927-.425 2.743-1.094 4.313-1.35 3.17-2.394 8.905-2.281 12.5.044 1.394.043 3.217 0 4.031l-.094 1.469-1-1.25c-1.497-1.833-1.673-1.124-.344 1.5.886 1.748 1.474 2.362 2.47 2.656 1.048.31 1.528.89 2.406 2.875.618 1.398.913 2.548.687 2.688-.22.135-1.263-.26-2.313-.875-1.049-.616-2.114-1.025-2.375-.938-.755.252 1.784 2.422 4.094 3.5 1.163.542 2.3.937 2.531.875.779-.208.723-1.932-.125-3.313-.46-.751-.921-2.04-1-2.843-.15-1.544.111-1.718 3.094-2.313.606-.12 2.286-1.287 3.75-2.594 3.024-2.698 3.399-2.577 3.531 1.094.084 2.317.184 2.48 1.594 2.75 1.079.207 2.063 1.27 2.063 2.219 0 .32.201.934.437 1.375.511.955 1.656.647 1.656-.438 0-.411.308-.991.657-1.28.348-.29.625-.774.625-1.095 0-.32.379-.593.844-.593.592 0 .837-.272.843-.938.005-.523.419-1.797.906-2.844l.875-1.906.594 1.375c.322.756.902 1.375 1.281 1.375.575 0 .654-.33.438-1.906-.143-1.041.02-3.832.375-6.219.758-5.099 1.43-12.194 1.656-17.281.089-1.992.57-5.13 1.063-6.969.79-2.945.894-4.322.812-11.687-.08-7.263-.013-8.455.594-9.125 1.038-1.147.856-1.779-.469-1.656-1.232.113-2.072-.695-13.125-12.688-3.582-3.887-4.523-4.722-5.281-4.531-.677.17-1.826-.437-4.344-2.282-1.888-1.383-3.56-2.713-3.719-2.968-.187-.304-10.577-4.44-10.906-4.438zm-4.875 1.625c-1.665.114-7.013 2.13-8.312 2.719-2.762 1.252-4.355 2.924-3.906 4.094.153.399-.841 2.236-2.563 4.75-4.527 6.61-8.29 15.309-9.375 21.656-.258 1.51-.841 4.06-1.313 5.688-.664 2.292-.917 4.768-1.125 11.03-.147 4.447.058 8.41.032 8.876-.096 1.729-.816 1.428.5 2.031 2.18.998.967-1.696 1.406-.875.25.469-.281 1.39-.281 1.688 0 .296 1.098.274 1.656 1.562 1.573 3.631 4.98 1.41 4.813 3.344-.184 2.115-.148 2.737-.844 8.812-1.46 2.892-1.999 2.53-5.156 5.125-1.819 1.198-3.35 1.31-7.188 2.438-1.918.383-4.215.782-5.219.875-2.971.275-6.76 2.285-11.281 6.031-4.753 3.94-6.146 5.435-7.125 7.563-.382.83-1.308 2.445-2.031 3.593-.866 1.375-1.313 2.683-1.344 3.813-.026.943-.4 2.476-.813 3.406-.47 1.058-.747 2.633-.718 4.188.028 1.541-.413 4.27-1.188 7.187-1.967 7.405-2.415 8.692-3.625 10.438-1.117 1.612-1.133 1.724-.969 7.25.092 3.086.319 5.834.5 6.125.182.29.362.532.407.53.044 0 .137-2.77.187-6.155l.063-6.157 1.281-1.187c.706-.66 1.31-1.365 1.313-1.563.012-1.118 1.732-8.73 2.25-9.937.336-.786.768-2.164.968-3.094.326-1.518.492-1.703 1.531-1.594 1.326.14 1.586-.835.532-2-.554-.611-.539-.96.25-3 .49-1.266 1.217-2.841 1.25-3.562.235-5.152 1.088-6.3 6.25-9.75 3.506-2.344 3.222-2.616 3.125-3.125-.254-1.334-1.914.662-4.781 2.625-2.784 1.905-1.657 1.503-1.657.781 0-.564 3.13-3.28 4.719-4.094.77-.393 2.335-1.446 3.469-2.344 2.128-1.684 2.546-1.836 8.844-3.28 3.692-.848 3.752-.866 4.437-.063.422.494 1.847-.584 3.375-.313 2.37.421 3.11.992 4.656-.031 1.61-1.065 1.016-.093 2.125.656.622.42 1.419.786 1.781.813 1.122.081 8.995 2.785 10 3.437.524.34 2.938.842 2.938 1.094 0 .252.269 2.73 3 5.531 5.058 5.186 9.139 10.006 10.156 11.938.311.59 1.171 1.878 1.906 2.844.736.965 2.07 3.19 2.97 4.968 1.558 3.078 1.621 3.287.968 4.219-.884 1.262-.902 3.697-.031 4.031.902.346 1.242-.12 1.25-1.687.006-1.253.095-1.343 1.375-1.219 1.451.14 1.653-.26.906-1.656-.654-1.223-.166-1.63 1.375-1.188.737.212 1.41.309 1.5.219.324-.324-1.069-3.825-1.594-4-.347-.116-.449.062-.281.5.367.956-.41 1.318-.875.406-1.178-2.31-1.518-9.517-.719-15.562.214-1.62-.635-3.74-1.25-3.125-.369.369-.366 11.993 0 15.625.298 2.954.264 3.118-.406 2.562-.395-.328-1.352-1.67-2.125-2.969-4.841-8.136-6.932-10.811-12.844-16.53-2.397-2.32-4.186-4.409-4.312-5.032-.29-1.44-3.681-3.447-8.719-5.125-2.177-.725-4.234-1.578-4.563-1.906-.328-.328-.91-.594-1.28-.594-2.642-.68-3.027-.745-4.626-1.563 1.502-.63 2.704-1.557 3.781-2.75 1.185-1.31 1.813-.78 2.938-4.28a3.73 3.73 0 0 0 .188-1.376l.25.031.125-3.28c.117-3.108.185-3.293 1.312-3.876 1.39-.719 2.156-.244 2.156 1.344 0 .546.296 1.584.656 2.281.514.993.848 1.186 1.532.969.708-.225 1.63.516 4.937 3.906 3.318 3.402 4.828 4.593 8.094 6.375 3.731 2.036 5.906 2.704 5.906 1.844 0-.495-1.687-2.226-2.969-3.063-1.013-.661-1.022-.71-.312-1.5.407-.452.75-1.015.75-1.218 0-.203.554-.948 1.219-1.656.941-1.003 1.313-1.947 1.687-4.313.265-1.672.469-3.795.469-4.719 0-1.05.544-2.85 1.469-4.781 1.58-3.296 1.893-5.405.875-6.25-.899-.746-1.906-.224-1.906 1 0 .575-.209 1.171-.438 1.313-.258.16-.316-.232-.156-1.032.165-.825.086-1.312-.219-1.312-.262 0-.501.24-.531.531-.03.29-.096 1.013-.156 1.594-.061.58-.232 2.373-.375 4-.305 3.455-1.209 8.331-2.157 11.625-.368 1.278-.869 3.075-1.125 3.969-.43 1.501-.58 1.602-1.719 1.375-1.184-.237-5.587-2.92-6.062-3.688-.393-.635.652-2.063 1.5-2.063 1.266 0 1.45-.798.375-1.687-.846-.7-1.065-.715-1.469-.188-.709.927-.916.75-1.469-1.093-.574-1.919-.6-1.93-1.53-1-.627.626-.739.606-1.25-.094-.307-.419-.563-1.008-.563-1.313 0-.304-.174-.53-.406-.53-.233 0-.438.417-.438.937 0 .652-.52.03-1.688-1.969-.93-1.591-1.687-3.177-1.687-3.531 0-.582-.624-3.132-1.156-4.75-.37-1.127-.906.868-.938 3.5-.022 1.85-.18 2.406-.656 2.406-.763 0-1.255-1.727-.938-3.313.229-1.141-.254-2.59-.718-2.124-.13.129-.282 1.307-.313 2.624-.03 1.317-.204 2.407-.406 2.407-.202 0-.79-.446-1.313-.969-.809-.808-.978-1.474-1.093-4.531-.123-3.236.145-5.913 1-9.469.225-.937.171-1.15-.281-1-.324.107-.65.656-.72 1.219-.16 1.309-.935 3.32-1.28 3.312-2.23-.048-2.767-1.435-2.125-5.531.233-1.488.498-3.389.593-4.25.096-.861.457-2.273.813-3.125.824-1.972.81-2.896-.031-3.594-.814-.675-.663-1.578 1.187-7.281 1.248-3.848 1.428-4.144 2.344-3.969.788.15 1.111-.074 1.562-1.125 1.929-4.494 2.245-9.999 4.313-10.75 2.024-.735 6.71-3.83 5.781-2.062-.285.543-4.618 5.361-5.281 6.125-.664.763-1.188 1.625-1.188 1.937 0 .312.072 1.239-.281 1.531-1.145.95-2.005 5.026-1.656 6.126.135.425-.181 2.106-.219 3.312 0 0-.735 3.162.875 5.406 1.593 2.22.719-7.219.719-7.219 1.46-3.036 2.196-5.043 2.031-5.562-.207-.653-.069-.813.781-.813.67 0 1.15-.298 1.313-.812.306-.964 3.674-4.058 5.375-4.938 1.05-.543 1.23-.538 1.437 0 .13.34.04 1.017-.219 1.5-.312.585-.322.876-.03.876.24 0 .437-.256.437-.563 0-.307.567-1.173 1.25-1.938l1.219-1.374-1.094-1.032c-.6-.556-1.156-1-1.25-1-1.176 0-4.425 2.988-6.719 6.156-1.541 2.13-1.597.786-.063-1.593 1.5-2.324 5.12-6.25 5.75-6.25.197 0 1.199-.658 2.22-1.469 1.02-.811 2.068-1.498 2.343-1.5.728-.006 1.072-1.442.75-3.156-.273-1.456-.212-1.499 1.688-2.313 2.256-.967 2.626-2.125.687-2.125-.882 0-1.382.842-2.75 1.532-2.9 1.46-1.574 3.51-2.125 3.874-.551.366-2.774.144-4.438 1.5-3.031 2.472-4.218 2.798-4.218 1.157 0-.46.581-3.286 2.25-4.157 6.22-3.245 8.5-3.573 8.031-4.093-.064-.072-.23-.079-.469-.063zm11.25 3.188c-.74.16-4.622 2.977-6.469 4.812-2.852 2.834-3.733 4.063-2.906 4.063.404 0 3.154-2.063 4.281-3.219.533-.546 4.08-2.85 4.594-2.844.759.01-2.37 2.447-5.031 5-1.801 1.729-3.281 3.345-3.281 3.594 0 .623 1.545-.206 3.156-1.688.697-.64 2.453-1.959 3.906-2.937 1.453-.978 5.004-3.493 5.344-4.156.556-1.087-1.053-1.128-1.875-.813-.394.152-.659-.107-.75-.75-.115-.805-.394-1.186-.969-1.062zm5.844 3.812c-.662.004-2.002.843-4.031 2.5-.973.795-1.75 1.685-1.75 1.969 0 .308 1.234-.142 3.062-1.094 2.143-1.115 3.093-1.842 3.188-2.469.089-.59-.072-.908-.469-.906zm2.219 3.969c-.522-.045-1.216.38-2.781 1.5-4.028 2.884-4.297 4.32-.407 2.125 3.279-1.85 3.781-1.543 4.094-.406-2.274 2.29-5.052 4.219-3.844 4.219 1.02 0 1.041.1.188 1.75-.791 1.529-.548 1.44 2.687-1.188 1.23-.999 2.395-1.813 2.594-1.813.732 0 2.72-1.99 2.063-2.718-.538-.594-2.44-.358-2.063-1.063.536-1.002.291-1.719-.625-1.719-.338 0-.977-.231-1.406-.5a1.127 1.127 0 0 0-.5-.187zm-9.531 1.688c-.051-.003-.099.026-.157.062-.232.144-.437.437-.437.656 0 .219.205.375.437.375.233 0 .406-.294.406-.656 0-.272-.098-.43-.25-.438zm2.78 4.093c-.17-.002-.404.047-.75.156-.46.147-.962.564-1.093.907-.204.53-.042.508 1.063-.063 1.042-.539 1.295-.993.78-1zm12.407.469c-.974-.145-6.063 4.997-6.063 6.125 0 .457.615.13 1.875-1.031 1.02-.94 2.623-2.23 3.594-2.844 1.83-1.155 2.067-2.031.594-2.25zm3.156 2.313a.433.433 0 0 0-.187.062c-.6.375-3.938 4.827-3.938 5.25 0 .175 1.208-.67 2.719-1.875 1.51-1.204 2.75-2.312 2.75-2.469 0-.485-.825-1.034-1.344-.969zm5.531 6.156c-.52-.012-1.258.59-2.562 2.062-1.117 1.262-2.029 2.42-2.031 2.594-.007.471.75.381 1.062-.125.15-.242 1.006-.9 1.906-1.469 2.073-1.308 2.856-2.63 1.813-3.031a.49.49 0 0 0-.188-.031zm-35.656.437a.394.394 0 0 0-.187.063c-.255.157-.65.707-.906 1.187-.335.626-.332.768 0 .563.254-.157.649-.677.906-1.156.25-.47.311-.667.187-.657zm-5.812.125c-.323-.08-1.582 1.565-1.594 2.219-.005.294.19.846.406 1.25.216.404.468 1.062.594 1.469.14.45.663.75 1.313.75.588 0 1.062.035 1.062.094 0 .058-.37 1.13-.844 2.374-1.143 3.009-1.87 4.286-4.562 4.532-1.132.103-3.526 6.006-2.5 5.437.108-.06 2.73-3.875 3.156-3.875 1.124 0 2.135.088 4.563-3.594 1.828-2.773 2.3-3.172 1.875-3.968-.27-.503-.376-1.289-.22-1.781.314-.986-.145-1.198-.937-.407-.386.387-.655.408-1.031.031-.376-.376-.376-.9 0-2.156.64-2.137.647-2.134-.344-1.875-.538.141-.838-.007-.844-.375 0-.09-.047-.113-.093-.125zM344 85.531c.332-.022.647-.01.875.063.78.248.823.624.688 6.469-.168 7.235-.562 8.332-4.375 12.593-2.412 2.695-2.802 3.654-1.657 4.094.57.219.651 1.027.531 5.5-.164 6.16-.584 7.031-3.437 7.031-1.303 0-2.106-.326-3.5-1.469-2.914-2.387-3.395-1.963-1.656 1.47 1.27 2.507 1.326 3.205.25 3.78-.942.505-4.148.597-4.406.126-.096-.175-.118-1.45-.063-2.844.693-17.679.677-17.591 2.438-15.938.71.667 6.66.198 3.875-2.375.9-2.191 1.589 3.02 1.937 1.125.25-1.362.286-1.674-.844-2.625-.702-.59-1.659-1.164-2.125-1.312-.976-.31-1.081-.977-.281-2.031.745-.981 1.415-.902 3.438.343.93.573 2.147 1.03 2.687 1.031 1.654.004.911-1.36-1.5-2.75-1.21-.697-2.211-1.56-2.219-1.937-.031-1.526 6.487-9.436 8.375-10.156.277-.106.637-.166.969-.188zm-34.375 4.063c-.203-.066-.762.817-1 1.781-.24.97-.125 1.23.75 1.563.969.368 1.039.531.844 2.624-.116 1.239-.45 2.418-.75 2.594-.643.378-1.115 1.84-2.063 6.438-.383 1.86-.968 4.235-1.281 5.281-.313 1.046-.88 3.145-1.281 4.656-.402 1.511-1.093 3.9-1.531 5.344-.439 1.443-.813 3.12-.813 3.719 0 .947.129 1.039.844.656 1.208-.647 1.389-1.141 1.969-4.875 1.155-7.438 2.905-12.31 4.687-13.094 1.083-.476 1.34-1.568.844-3.5-.309-1.204-.191-1.496.844-2.406.65-.572.946-1.055.656-1.063-.881-.022-.59-1.886.531-3.406.581-.787 1.063-1.475 1.063-1.562 0-.088-.549-.106-1.188-.031-1.07.125-1.147.026-1.031-1.188.115-1.208.048-1.314-.938-1.125-1.084.207-1.331-.236-1.094-2 .036-.265.006-.384-.062-.406zm-4.594.844c-.402 0-4.219 7.487-4.219 8.28 0 .882.228.744 1.5-1.093.645-.93 1.398-1.719 1.688-1.719.29 0 .859-.466 1.25-1.062.557-.85.58-1.215.188-1.688-.276-.332-.393-1.074-.282-1.656.112-.582.053-1.063-.125-1.063zm-17.406.406c-1.368 5.632-2 8.977-2 10.344 0 1.603.012 1.627.844.874.84-.76.844-.75.844 4.5 0 2.903.043 5.602.25 5.563 2.19-.414 1.253-8.853 1-11.094-.364-3.212-2.15-3.088-.907-5.781 1.382-2.991 3.756-1.735 2-2.469-1.08-.451-1.474-.888-1.594-1.781l-.437-.156zm32.656 2.125c-1.062 0-2.173.942-3 2.562-.926 1.816-2.49 6.541-2.5 7.531-.004.44.243.387.938-.25.523-.478 1.383-.997 1.906-1.156 1.006-.305 1.234-.878.531-1.312-.726-.449-.466-1.497.844-3.438 1.451-2.15 2.031-3.937 1.281-3.937zm-28.875 10.125c-.365 0-.79.38-.937.844-.234.736-.376 5.58-.25 8.374.023.524.2.938.406.938.413 0 .734-1.906 1.156-6.875.24-2.813.195-3.281-.375-3.281zm23.219.969c-.042-.016-.115.022-.188.093-.236.233-.537 1.298-.687 2.344-.338 2.357.369 1.43.813-1.063.153-.859.187-1.327.062-1.374zm-16.188 2.187c-.139.008-.325.12-.625.281-.868.465-.887.657-.656 5.375.133 2.706.447 5.557.719 6.313.272.755.558 1.375.625 1.375.067 0 .119-2.443.125-5.406.006-2.964.046-5.58.094-5.813.048-.232.059-.844.031-1.375-.028-.533-.08-.763-.313-.75zm3.938.094c-.343-.005-.66.046-.719.25-.21.726-2.341 13.705-.437 19.156.305.873 1.228-13.714 1.312-15.469.14-2.914 1.332-3.875.719-3.875-.167 0-.532-.057-.875-.062zm41.094.781.094 1.25c.115 1.989-.025 4.67-.532 10.375-.258 2.906-.69 5.834-.969 6.531l-.53 1.281-.5-.968c-.34-.632-.832-.927-1.407-.844-1.304.188-1.403-.777-.156-1.594.595-.39 1.094-1.02 1.094-1.406 0-.386.247-1.073.562-1.531.36-.524.665-2.656.813-5.75.155-3.246.443-5.36.875-6.156l.656-1.188zm-49.313.719c-.48.071-.937.572-.937 1.281 0 1.44 1.816 12.4 2.094 13.281.389 1.235 1.243.117 1.125-1.344-.06-.737-.417-2.024-.094-2.656.322-.631.45-1.432.281-1.781-.168-.349-.544-1.043-.813-1.563-.268-.52-.496-2.137-.5-3.593-.003-1.456-.17-2.926-.375-3.25-.202-.32-.493-.418-.78-.375zm-12 2.031c.087.003.206.027.313.063.232 0 .656 3.097.656 3.562 0 .465-.674 1.031-.906 1.031-.233 0-.406-.41-.406-.875 0-.436-.95-3.832.343-3.781zm38.188 6.344c.5 0 .417 2.455-.125 3.469-.262.49-.829 2.302-1.25 4.03-.682 2.795-1.251 4.306-1.219 3.22.16-5.416 1.435-10.72 2.594-10.72zm89.406 2.937c-.35.028-.615.028-1 .063-6.439.58-25.262.722-34.688.25-5.905-.296-6.468-.087-6.468 2.594 0 .87-.186 2.7-.438 4.062-.262 1.421-.355 3.733-.187 5.406.408 4.063.973 4.37 8.594 4.719 6.093.28 13.691.993 14.687 1.375.43.165.594 1.026.594 3.156v2.938l-1.594.625c-.872.349-2.802 1.238-4.313 1.969-1.51.73-3.88 1.638-5.25 2-1.596.42-2.648.958-2.937 1.5-.248.464-.803 1.338-1.219 1.968-.887 1.343-.955 2.283-.219 2.75.291.184 2.252.443 4.344.563 2.896.166 3.78.345 3.688.781-.066.315-.514 2.793-.969 5.5-1.247 7.427-.861 6.719-3.75 6.719-1.469 0-4.069.465-6.313 1.125-3.054.898-4.005 1.038-4.718.656-.747-.4-1.135-.276-2.438.688-2.624 1.94-3.906 3.26-3.906 4.062 0 1.026.246.975 2.594-.531 1.722-1.105 3.486-1.704 9.562-3.219.692-.173.969-.06.969.438 0 1.21.92.872 4.281-1.532.797-.57 1.36-.634 2.5-.344 2.568.654 6.313.91 6.313.438 0-.572-1.84-1.25-3.375-1.25-.669 0-1.354-.202-1.5-.438-.308-.497 1.669-9.56 2.531-11.625.536-1.283.758-1.442 2.969-1.718 2.52-.315 3.79-.214 11.406.875 2.997.428 6.57.85 10.25 1.219v-2.282c-6.176-.6-9.093-.902-12.563-1.406-4.649-.676-11.325-.85-16.156-.438-2.678.229-2.875.194-2.875-.625 0-1.23 1.204-1.884 6.938-3.656 4.101-1.267 5.242-1.467 6.062-1.094.554.253 2.007.47 3.25.47 4.278 0 10.764.873 13.219 1.78.703.26 1.382.42 2.125.563v-2.469c-.78-.168-1.517-.397-2.5-.719-2.676-.875-4.731-1.198-8.719-1.406-2.868-.15-5.362-.364-5.531-.469-.307-.19.299-6.607.656-6.968.022-.022.081-.06.188-.063.746-.013 3.539.46 8.187 1.375 1.043.206 4.36.437 7.719.531v-3.28c-2.528-.142-5.88-.435-9.594-.907-9.428-1.199-12.103-1.473-17.125-1.719-7.642-.373-13.395-1.003-14.031-1.531-.852-.707-.671-1.923.375-2.656.732-.513.891-1.006.813-2.344-.056-.934.157-2.471.437-3.406.444-1.482 1.031-2.053 2.563-2.063.51-.003 1.13.045 1.875.156l1.937.313-.25 4.063c-.379 5.533-.226 5.796 4.594 6.187 2.006.163 7.3.39 11.75.5 5.528.136 8.77.403 10.219.844 1.166.354 3.898.886 6.062 1.219.13.02.246.041.375.062v-2.688c-2.881-.593-6.302-1.288-8.969-1.78-1.668-.31-1.67-.327-.5-.657 1.43-.403 5.285.015 8.625.906.222.06.544.105.844.156v-2.562c-.421-.092-.782-.17-1.25-.281-2.73-.649-4.968-1.319-4.969-1.469 0-.15 2.761-.157 6.125-.031.037.001.058-.002.094 0v-4.375c-2.921-.04-5.556-.12-5.656-.281-.112-.18-.135-.306-.063-.313 2.116-.2 3.984-.338 5.719-.438v-2.53zm-110.906 1.5c-.21.05-.54.255-.594.281-.118.06-.037 1.87-.031 2.438.011 1.093.892 1.536.969.281.039-.645.146-2.665-.188-3-.032-.032-.086-.016-.156 0zm83.531 3.188c1.837-.006 4.374.114 7.25.375 2.423.22 7.422.493 11.125.625 3.703.132 6.812.312 6.906.406.66.66-12.84 1.053-20.781.594-1.287-.075-2.147.041-2.25.344-.187.55 2.055 1.348 7.813 2.718 2.152.513 4.029 1.076 4.156 1.281.476.772-16.294.148-17.594-.656-.529-.327-.36-4.344.219-5.281.167-.27 1.319-.4 3.156-.406zm-59.656.187 1.625 1.531c.891.847 2.28 1.881 3.094 2.313l1.5.813-1.375.125c-1.553.15-1.658.337-.72 1.375.61.672.528.847-.906 2.28-.857.858-2.148 1.932-2.875 2.376-.726.443-1.84.811-2.468.812-.96.002-1.185-.226-1.406-1.406-.315-1.677.458-7.571 1.156-8.875.49-.916.483-.924.875.25.552 1.657 1.851 1.388 1.656-.344l-.156-1.25zm13.187.625c.564 0 .844.28.844.844 0 .815-.824 1.144-1.406.563-.582-.582-.252-1.407.562-1.407zm-37.437 2.969c.316.005.66.228.812.625.131.341.102.689-.062.781-.531.299-1.344-.197-1.344-.812 0-.395.278-.599.594-.594zm35 .5c.914-.176 1.305 1.84.937 4.781-.323 2.59-.718 2.898-1.406 1.156-1.119-2.83-.887-5.676.469-5.937zm-55.063 11.594c.59-.032 2.703 1.03 2.781 1.344.059.232-2.053 0-3.406-.344-1.002-.255-2.354.342-2.219-.063.108-.324 2.254-.906 2.844-.937zm61.813 5.875c-.725-.043-1.516.165-1.656.531-.33.858 1.137 9.976 2.25 13.906.75 2.653 5.96 10.647 8 12.281.796.639 2.155 1.26 3.03 1.375l1.594.22V184l-.218 3.563c-1.297.335-7.585 4.393-8.219 4.968-2.501 2.269-13.468 11.888-12.906 11.469.581.663 3.712-1.333 4.719-2.344.13-.132 1.546-1.152 3.375-2.437-.126.2-.266.385-.407.625-1.537 2.62-4.259 2.707-6.531 4.469-1.006.78-3.43 2.244-5.406 3.25l-5.25 1.406-7.125 1.031c-7.817-.022-14.115-1.834-18.219-2.844-2.992-.736-14.704-3.785-16.438-4.125-.146-1.397.157-2.761.157-3.687 0-.792.268-5.834 2.031-6.844 1.486-.851 1.1-13.352.031-13.188-.204.032-1.001 9.987-1.156 10.813-.155.826-.006.64-.375.781-.37.142-2.34-.087-4.375-.5-4.922-.999-5.655-.901-12.563 1.719-3.087 1.171-11.37 5.244-4.28.406.888-.606 5.745-2.781 6.812-2.781 1.435 0 6.465-1.382 7.062-1.938.758-.704.31-1.875-.719-1.875-.438 0-2.874.59-5.406 1.313-4.748 1.357-8.365 3.192-11.281 5.688-.922.789-3.137 2.019-4.906 2.75-4.803 1.982-6.767 3.574-9.375 7.562-.845 1.291-1.543 1.898-2.188 1.906-.722.01-.937.255-.937 1.063 0 .747.196 1.041.719 1 .66-.053.75.415.75 4.375 0 3.991-.092 4.468-.813 4.656-.946.247-1.31 1.779-1.25 5.125.055 3.11.447 4.478 1.375 4.656.643.124.738-.127.656-1.687-.238-4.54.96-10.342 2.938-14.219 1.223-2.398 1.168-3.208-.156-2.875-.998.25-1.005.206-.563-1.063.535-1.536 5.37-6.257 6.094-6.718 6.977-4.438.729.368-.469 2.312-1.762 2.861-1.143 4.487.688 1.813 2.698-3.941 6.48-6.565 10.75-7.438 1.147-.234 4.264-1.124 6.937-1.969 5.26-1.661 8.121-1.919 10.781-1l1.688.563.125 3.094c.12 3.001.111 3.102-.813 2.969-.607-.088-1.057-.514-1.219-1.188-.246-1.027-.343-1.065-3.812-1.031-6.368.063-10.835 2.244-15.031 7.344-2.896 3.52-3.02 3.726-5.031 8.437-.838 1.96-1.772 3.783-2.094 4.031-.322.248-.648 1.096-.719 1.906-.11 1.251-.297 1.496-1.188 1.5-1.453.008-1.6 1.24-.25 2.125.596.39 3.889-1.974 1.094 1.5-.79.984 1.83 1.477 3.563.407 1.836-1.135 5.864-1.631 6.812-.844 1.1.913-2.268 3.96-5.5 5-2.027.652-8.418 1.544-12.937 1.781-.337.018.061.28.875.594 1.9.732 7.924.769 11.187.063 3.164-.685 4.921-1.58 7.688-3.938l2.156-1.844 5.344.625c4.272 1.238 7.854 1.119 14.656 1.531 4.385.266 5.878-.171 11.219-.468-.465.239-7.355 4.018-9.563 5.562-2.208 1.544-17.073 10.299-18.062 10.813-1.955 1.016 2.166 1.062 3.125 1.062.594 0 12.398-8.208 13.656-8.969.349-.21 2.827-2.595 5.5-4.03 2.673-1.436 5.479-2.047 6.219-2.595 1.307-.968 4.59-1.417 4.281-.593-.077.206-.985 1.02-2.031 1.812-1.97 1.492-2.78 3.351-3.063 7.094-.096 1.28-.013 1.46.719 1.313 2.21-.444 9.889-.054 15.219.78 7.078 1.11 11.673 1.535 22.625 2.095 8.65.441 13.835 1.304 18.969 3.156 2.847 1.027 5.658 1.542 13.312 2.406 3.644.411 6.562.475 14 .25 1.524-.046 1.697.035 1.813 1.031.124 1.077.058 2.152-2.844 2.438-26.78-.21-53.53-5.01-80.125-8-2.802-.186-8.256.91-4.719-3.969-2.626 2.932-3.344 3.089-3.313 5.531.035 2.71-.236 3.067.47 3.438.434.228 5.358.534 10.937.687 5.63.155 12.98.65 16.5 1.094 3.487.44 8.514 1.02 11.187 1.281 2.673.262 5.522.632 6.344.844.823.212 2.877.39 4.563.375 1.685-.016 3.311.147 3.593.375.852.688 5.249 1.024 15.813 1.156 8.096.101 10.454.266 12.156.844 1.162.394 3.364.852 4.875 1.031 1.51.18 3.02.342 3.375.375.86.08 2.531-1.116 2.531-1.812 0-.41-.945-.557-3.625-.594-4.833-.066-5.84-.65-2.219-1.281 1.506-.262 3.65-.469 4.75-.469s2.363-.197 2.813-.438c.971-.52 1.105-1.687.188-1.687-.928 0-1.586-2.02-1.313-4.063.327-2.446-.62-3.24-2.031-1.718-1.263 1.362-4.255 1.79-10.156 1.437-9.108-.543-12.978-1.139-18.157-2.781-8.178-2.594-12.597-3.226-27.562-3.844-5.608-.231-10.701-.611-11.313-.844-.611-.232-2.472-.524-4.156-.656-1.684-.132-4.112-.434-5.375-.656-1.263-.222-3.32-.375-4.563-.375-2.554 0-3.037-.568-2.25-2.469.531-1.281 3.633-3.734 7.22-5.719 2.095-1.16 2.753-1.308 6.843-1.468 5.523-.216 10.815-2.74 14.813-.531l9.656 4.25c.778-.73 1.64-.888 5.937-1.032 2.756-.092 5.655-.322 6.469-.531 1.968-.506 7.883-2.375 8.563-2.938 1.008-.834 1.48 2.358.5 3.97-1.695 2.786-3.443 4.75-4.22 4.75-.412 0-.863.185-1 .405-.343.557 1.142 1.313 2.626 1.313 1.04 0 1.352-.294 2.031-1.813.442-.987 1.4-2.467 2.125-3.28.725-.814 1.48-1.938 1.656-2.5.537-1.723 2.975-5.175 5.719-8.063 2.985-3.142 5.063-5.971 5.063-6.938 0-1.31-1.605-.668-2.782 1.125-.648.988-2.224 3.123-3.531 4.75-1.307 1.627-3.025 3.865-3.813 4.969-1.514 2.123-1.734 2.265-2.406 1.594-.281-.282-2.09-2.613-5-1.188l-4.375 2.125-2.031-.875c-1.115-.48-2.616-.844-3.344-.844-1.113 0-1.279.131-1.062.813.332 1.047-1.778 1.483-6.25 1.531-4.452-.518-6.552-1.607-10.219-4.312-4.752-.83-19.851 1.626-25.25 1.844-3.204.129-23.614-.19-27.75-.844-4.582-.725-13.269-2.598-14-3.781-.134-.218-3.673-1.578-4.188-1.688-.766-.164-3.277 1.296-2.218-.688.168-.314.784-2.638 2.031-5.125 2.795-5.57 5.555-8.532 10-10.75 4.138-2.064 4.587-1.514 6.531-.312 5.492 3.03 11.21 4.326 17.25 5.625 6.82 1.478 8.99 1.96 13.938 3.313 3.222.88 4.304.99 10.75.875 8.046-.144 12.49-.287 14.656-2.157.756-.653 2.407-1.734 3.656-2.406 1.25-.672 2.593-1.695 2.969-2.281.376-.587 2.478-1.883 3.688-3s1.801-1.323 1.937-1.75c.39-1.23.568-.84 3.313-.625 1.754.137 2.678-.289 4.25-.813 1.274-.424 1.184-.134 2.75-.344.986-.132 1.262-1.394 1.375-1.28.336.336.556 1.164.156 2.562-.231.805-.23 1.595.031 2.062.538.962-.195 1.46-2.125 1.469-1.01.005-1.794-.356-2.719-1.281-1.456-1.457-1.254.101-1.812 1.406-.164.383-1.11-.272-2.719-1.625-2.313-1.946-2.185-.132.188 2.688 1.129 1.342 1.205 1.38 4.812 1.375 3.167-.005 9.192-.935 12.375-1.907 1.537-.469 2.428-1.479 2.719-3.031.356-1.9.885-1.79 1.812.375 1.554 3.629 1.628 3.393-1.719 5.656-1.679 1.136-3.739 2.647-4.593 3.344-.855.697-1.908 1.484-2.344 1.75-.651.398-.7.595-.25 1.063.457.476.773.442 1.906-.22 5.788-3.375 6.616-3.756 6.906-3 .2.522-.166 1.164-1.25 2.157-1.487 1.363-4.866 5.485-6.406 7.844l-.75 1.187 1.313-.281c1.122-.224 1.312-.128 1.312.594 0 .465-.296 1.076-.656 1.375-.722.6-.655 2.16.094 2.406.262.086.847-.454 1.312-1.219 2.373-3.904 6.302-10.551 6.906-11.656 1.046-1.91 3.323-2.03 9.782-.5 2.289.542 2.291 1.336 0 1.156-1.423-.111-1.65.02-3.125 2.188-.87 1.278-1.98 3.378-2.5 4.656-.52 1.278-1.294 2.82-1.719 3.438-.425.617-.781 1.319-.781 1.53 0 .213-.751.804-1.656 1.313-.906.51-1.766 1.196-1.907 1.563-.394 1.028-.282 2.647.188 2.937.796.492.416 1.101-1.063 1.719-.813.34-1.469.783-1.469 1 0 .217-.534.665-1.156.969-1.342.654-1.705 1.5-.812 1.844 1.487.57 7.462-5.122 8.937-8.5 1.562-3.577 4.387-7.62 7.594-10.875 1.972-2.002 2.666-2.987 2.469-3.5-.231-.603-.063-.686.969-.47 1.446.304 6.896 1.083 7.656 1.095.29.004.531.205.531.437s-.55.438-1.219.438-1.433.28-1.719.625c-.391.471-.722.52-1.343.187-1.122-.6-4.157 1.186-5.625 3.313-3.583 5.19-7.547 11.408-8.094 12.718-.35.837-1.29 2.056-2.094 2.719-.804.663-1.469 1.378-1.469 1.594 0 .556 1.136.493 2.125-.125.65-.405 1.01-.416 1.625-.031.712.444.981.233 2.344-2.063.84-1.415 1.531-2.829 1.531-3.125 0-.869 4.17-9.257 5.094-10.25.788-.845 5.234-3.875 5.688-3.875.502 0 .088.998-1.313 3.188-.832 1.3-1.875 3.417-2.312 4.687-.991 2.88-2.065 4.251-4.469 5.75-1.036.646-1.782 1.358-1.656 1.563.264.427 1.815.114 2.156-.438.32-.517 1.875-.495 1.875.031 0 .237-.482 1.807-1.063 3.469-.58 1.662-.963 3.13-.843 3.25.459.46 1.182-.826 1.906-3.406.965-3.44 4.174-11.025 5.625-13.313.617-.972 1.823-2.314 2.688-2.969a30.244 30.244 0 0 0 2.75-2.406c1.114-1.134 1.362-1.177 3.53-.906 1.274.16 2.383.435 2.5.625.185.299-2.575 5.132-6.187 10.813-.593.933-1.58 2.724-2.219 4-.638 1.275-1.52 2.722-1.937 3.187-1.463 1.633-3.425 5.963-3.281 7.219.13 1.133.298.96 2.5-2.375 1.304-1.976 2.82-4.391 3.375-5.375.952-1.688 1.93-2.508 2.406-2.031.117.116-.291.976-.906 1.906-.615.93-1.125 1.844-1.125 2.031 0 .187-.963 1.724-2.125 3.406-1.162 1.682-2.094 3.234-2.094 3.469 0 .235-.276.554-.625.688-.657.252-.918 1.406-.313 1.406.411 0 2.188-2.336 2.188-2.875 0-.209.686-1.247 1.5-2.313.814-1.065 1.469-2.14 1.469-2.375 0-.234.481-.935 1.062-1.562.581-.627 1.063-1.411 1.063-1.75 0-.34.414-1.18.937-1.844a86.133 86.133 0 0 0 2.438-3.313c1.628-2.338 2.065-2.56 2.844-1.312.447.717.248 1.44-1.344 5.031-1.024 2.31-1.965 4.62-2.125 5.125-.16.506-1.062 1.987-1.969 3.281-.907 1.295-1.625 2.593-1.625 2.875 0 .834-2.106 5.128-2.781 5.688-.342.284-.625.757-.625 1.031 0 .275-.655 1.118-1.469 1.906-1.514 1.468-1.954 2.97-.875 2.97.647 0 2.344-1.923 2.344-2.657 0-.244.36-.864.781-1.344 1.19-1.358 5.156-8.087 5.156-8.75 0-.326.3-1.04.688-1.594.999-1.426 2.683-4.551 5.406-10.093 1.668-3.394 2.91-5.329 4.25-6.594 1.042-.985 1.906-2.007 1.906-2.25 0-.474 1.759-2.084 2.844-2.75v-2.813c-.706.644-1.55 1.495-2.688 2.72-2.05 2.207-3.892 4-4.093 4-.201 0-.857-.553-1.469-1.25-.612-.698-1.36-1.282-1.656-1.282-.853 0-.632-1.027.437-2.031 1.321-1.241 1.563-1.173 1.563.5 0 1.596.804 2.524 1.844 2.125.783-.3.827-.542.28-1.406-.498-.789.1-1.925 1.97-3.688.8-.755 1.333-1.577 1.187-1.813-.305-.493 1.07-3.321 2.625-5.437v-4.313c-1.284 1.054-2.258 2.304-3.063 3.875-1.633 3.192-3.211 4.48-5.875 4.813-1.292.161-3.402.082-4.78-.188-1.35-.263-4.23-.738-6.438-1.062-2.209-.324-6.305-1.102-9.094-1.719-2.79-.616-5.923-1.246-6.969-1.375-2.328-.287-3.406-1.12-3.406-2.719 0-.897.265-1.333 1.031-1.625 1.211-.46 2.209-1.812 2.594-3.593.257-1.19.136-1.116-1.719.969-2.082 2.34-2.75 2.48-2.75.593 0-.632-.28-1.57-.625-2.062-.555-.793-.555-.912 0-1.125.772-.296.825-1.269.094-1.875-.79-.656-1.746.064-1.469 1.125.325 1.242.031 1.148-2.062-.781-1.115-1.028-2.236-1.688-2.875-1.688-1.193 0-1.6-.639-2.313-3.563-.422-1.728-.402-2.167.125-2.75.686-.757 3.523-1.697 5.531-1.843 1.658-.12 1.734.999.094 1.437-1.447.387-2.406 1.13-2.406 1.875 0 .429.796.52 3.469.375 5.252-.286 6.945-1.886 3.812-3.562l-1.562-.844 4.625.219c8.385.384 10.25.592 15.937 1.875 3.092.697 5.657 1.281 5.719 1.281.062 0 .125.202.125.438 0 .498-2.503 2.09-3.281 2.093-.29.001-.531-.379-.531-.844 0-1.049-.376-1.036-3.782.032-2.71.849-6.863 3.61-7.656 5.094-.605 1.13-.518 1.937.125 1.156.29-.353 1.574-1.361 2.844-2.25 1.849-1.294 2.841-1.69 4.937-1.906l2.625-.25-3.531 3.812c-1.935 2.102-4.577 4.85-5.875 6.094-1.298 1.244-2.375 2.519-2.375 2.844 0 .324.099.593.188.593.088 0 2.74-2.57 5.906-5.719 5.224-5.197 6.075-5.903 9.344-7.406 1.98-.91 3.706-1.923 3.843-2.281.203-.528 1.103-.656 4.688-.656 1.866 0 4.142.146 6.781.375v-2.813c-.526-.045-1.074-.09-1.563-.125-3.37-.24-6.34-.505-6.593-.594-.254-.088-.497-.99-.531-2-.034-1.009-.127-2.19-.188-2.656-.104-.792.153-.865 3.719-.844 1.338.008 3.152.082 5.156.188v-1.813a87.766 87.766 0 0 0-6.406-.468c-2.638-.09-5.162-.363-5.594-.594-1.106-.592-2.445-2.15-2.125-2.469.147-.147 2.686-.022 5.656.25 2.447.225 5.79.516 8.469.75v-1.719a379.042 379.042 0 0 1-8.531-.937c-2.783-.333-5.87-.594-6.844-.594-1.47 0-2.155-.326-4.094-1.906-1.284-1.046-2.43-1.906-2.562-1.906-.63 0-.15 1.726.594 2.125 1.087.582 1.065 1.275-.032 1.562-.787.206-.79.304-.187.969.61.675 4.756 3.541 7.562 5.25 1.981 1.206.794 1.656-2.437.906-3.282-.76-4.5-.835-4.5-.25 0 .499 1.992 1.381 6.5 2.844 3.13 1.016 3.934 1.664 3.562 2.875-.186.607-5.359.24-7.094-.5-4.237-1.81-9.897-2.615-19.218-2.719-5.034-.056-5.759.02-8.469 1.063-4.502 1.732-4.288 1.743-4.625.406-.166-.658-.263-4.25-.219-7.969.108-9.045.103-9.366-.625-10.094-.5-.499-.961-.549-2.219-.218-1.926.506-3.093 1.764-3.093 3.344 0 3.157-2.734 1.283-6.5-4.438-4.024-6.112-5.457-10.667-5.25-16.688.056-1.623-.024-3.085-.188-3.25-.2-.2-.627-.318-1.062-.343zm-19.938 1.687c-.802 0-1.096 2.138-.406 2.969.89 1.073 1.29.656 1.156-1.188-.09-1.257-.306-1.78-.75-1.78zm-31.062 6.531c-.6 0-2.665 2.941-4.031 5.72-.344.697-1.149 2.13-1.782 3.187-1.318 2.2-2.441 6.128-2.469 8.625-.01.939-.254 2.418-.562 3.281-.308.863-.473 1.683-.344 1.813.13.129-1.129 6.36.469 6.093.887-.148-.055-6.07 1.406-6.719.674-.299 1.156-.917 1.156-1.375 0-1.084 2.295-4.369 4.532-6.5 1.826-1.739 2.265-2.89 1.281-3.28-.337-.134-.032-.597.844-1.313 1.474-1.206 1.768-2.203.75-2.594-.387-.148-1.602.591-3.156 1.938-1.397 1.209-3.97 6.005-3.97 5.843 0-.65 2.999-7.471 4.938-10.406 1.985-3.004 2.253-4.313.938-4.313zm41.125 0c-.429.024-.885.45-1.063 1.157-.368 1.467.587 9.238 1.563 12.812 1 3.66 4.558 13.536 5.125 14.219.725.874 1.318.152 1.031-1.281-.146-.728-.284-1.746-.281-2.25.007-1.157-1.053-3.695-2.156-5.188-1.698-2.296-2.973-7.83-3.125-13.437-.078-2.855-.267-5.4-.407-5.625-.185-.3-.43-.42-.687-.406zm68.687 8.72c-2.143.014-3.531.045-3.531.124 0 .303 10.067 1.064 14.25 1.156v-1.218a558.407 558.407 0 0 0-10.719-.063zm3.031 5.374c-.17-.018-.33.078-.437.25-.322.52.952.827 4.219 1 1.493.08 2.743.151 3.906.188v-1.125c-.416.003-.744 0-1.219 0-3.239-.005-6.078-.125-6.281-.25a.51.51 0 0 0-.188-.063zm-45.906 1.563c.368-.077.864.2 1.063.719.151.394.266 5.007.25 10.25-.017 5.242.147 10.288.375 11.218.486 1.986.698 9.638.281 10.313-.297.48-2.025.63-2.438.219-.127-.128-.07-.922.125-1.782.715-3.13.92-9.586.407-12.625-.39-2.31-.733-14.31-.5-17.781a.562.562 0 0 1 .437-.531zm22.688 18.375c-.87.044-2.121.384-3.875 1.062-2.712 1.049-3.732 1.68-4.375 2.688a51.208 51.208 0 0 1-1.563 2.281c-1.095 1.49.008 1.15 3.156-.938 1.837-1.217 3.689-2.022 5.344-2.375 2.624-.558 3.237-.995 2.875-1.937-.221-.578-.693-.825-1.562-.781zm3.969 1.719c-1.5.088-6.344 3.608-6.344 4.718 0 .43.405.338 1.594-.312.871-.477 2.49-1.236 3.593-1.688 2.033-.83 2.733-2.178 1.406-2.687a.596.596 0 0 0-.25-.031zm-29 .03.093 3.907-.219 2.813c-1.03.062-4.355 1.111-5.75 1.343-1.46.243-3.087.172-3.968-.031a7.294 7.294 0 0 0-1.219-.188c4.138-2.897 9.13-6.385 11.063-7.843zm51.437 2.438c-.295.004-.743.15-1.344.406-.784.334-2.574.941-3.969 1.344-2.465.713-5.403 2.391-6.53 3.75-.892 1.074.289.833 1.687-.344.762-.64 2.402-1.249 4.5-1.687 3.664-.766 5.111-1.397 5.781-2.469.418-.668.366-1.007-.125-1zm3.344 1.094c-.999 0-2.307.777-6.094 3.594-5.001 3.72-7.438 5.752-7.438 6.187 0 .533.453.242 3.594-2.156 2.656-2.027 2.895-2.161 7.75-4.875 2.974-1.662 3.833-2.75 2.188-2.75zm1.156 4c-.5.32-1.837 1.066-3.469 1.938-3.413 1.824-7.346 4.637-7.969 5.718-.571.993.123.671 2.188-1.062 1.837-1.542 5.683-3.58 9.25-5v-1.594zm-48.281.344c.449-.04.907.742.937 1.812.027.955-.167 1.438-.531 1.438-.61 0-1.258-2.237-.844-2.906.13-.209.288-.33.438-.344zm30.844 1.281c-.41.17-1.293 1.266-1.907 2.469-.961 1.884-2.31 3.88-4.187 6.25-.754.951-1.207 1.719-1 1.719.823 0 5.219-5.548 5.219-6.594 0-.233.45-1.088 1.03-1.875.582-.788 1.063-1.597 1.063-1.813 0-.18-.082-.212-.219-.156zm-13.032 2.188c-.167-.016-.51.315-1.156 1.062-.704.814-1.463 1.812-1.688 2.219-.306.555-.252.75.22.75.814 0 2.771-2.616 2.75-3.656-.006-.244-.025-.366-.126-.375zm15.156 2.75c-.564 0-6.125 5.617-6.125 6.187 0 .974 1.273.622 1.688-.469.218-.572 1.118-1.745 2-2.625 1.966-1.962 2.84-3.094 2.438-3.094zm1.375 21.656c.16.023-.145.67-.937 2.312-1.104 2.288-1.906 3.157-1.906 2.031 0-.959 1.014-2.832 2.062-3.78.423-.383.685-.577.781-.563zm-21.718 5a.693.693 0 0 1 .25.031c.33.11.28.413-.125.969-.434.593-.666.67-.906.281-.33-.534.188-1.264.78-1.281zm-77.75 14.5c4.685.103 13.8 1.03 16.531 1.844.845.252.845.232 0 .562-1.148.449-6.46.379-13.188-.188-5.593-.47-7.182-1.004-6.156-2.03.18-.18 1.251-.223 2.813-.188zm42.844 4.562c1.545-.03 3.708.202 6.656.75 1.162.216 3.591.424 5.406.438 3.297.025 6.899.654 7.656 1.344.845.768-15.63-.02-17.656-.844-.654-.267-1.912-.5-2.813-.5-2.152 0-2.544-.728-.593-1.094.384-.072.828-.084 1.344-.094z" style="fill:#000;fill-opacity:1"/></svg>