<?xml version="1.0" encoding="UTF-8" standalone="no"?>
<!-- Created with Inkscape (http://www.inkscape.org/) -->
<svg
   xmlns:dc="http://purl.org/dc/elements/1.1/"
   xmlns:cc="http://creativecommons.org/ns#"
   xmlns:rdf="http://www.w3.org/1999/02/22-rdf-syntax-ns#"
   xmlns:svg="http://www.w3.org/2000/svg"
   xmlns="http://www.w3.org/2000/svg"
   xmlns:sodipodi="http://sodipodi.sourceforge.net/DTD/sodipodi-0.dtd"
   xmlns:inkscape="http://www.inkscape.org/namespaces/inkscape"
   width="200"
   height="300"
   id="svg2577"
   sodipodi:version="0.32"
   inkscape:version="0.45.1+0.46pre1+devel"
   version="1.0"
   sodipodi:docname="auteur.svg"
   inkscape:output_extension="org.inkscape.output.svg.inkscape">
  <defs
     id="defs2579">
    <inkscape:perspective
       sodipodi:type="inkscape:persp3d"
       inkscape:vp_x="-50 : 600 : 1"
       inkscape:vp_y="0 : 1000 : 0"
       inkscape:vp_z="700 : 600 : 1"
       inkscape:persp3d-origin="300 : 400 : 1"
       id="perspective2585" />
  </defs>
  <sodipodi:namedview
     id="base"
     pagecolor="#ffffff"
     bordercolor="#666666"
     borderopacity="1.0"
     inkscape:pageopacity="0.0"
     inkscape:pageshadow="2"
     inkscape:zoom="0.35"
     inkscape:cx="375"
     inkscape:cy="520"
     inkscape:document-units="px"
     inkscape:current-layer="layer1"
     showgrid="false"
     inkscape:window-width="640"
     inkscape:window-height="664"
     inkscape:window-x="70"
     inkscape:window-y="0" />
  <metadata
     id="metadata2582">
    <rdf:RDF>
      <cc:Work
         rdf:about="">
        <dc:format>image/svg+xml</dc:format>
        <dc:type
           rdf:resource="http://purl.org/dc/dcmitype/StillImage" />
      </cc:Work>
    </rdf:RDF>
  </metadata>
  <g
     inkscape:label="Calque 1"
     inkscape:groupmode="layer"
     id="layer1">
    <g
       id="g2532"
       transform="translate(-221.68115,-0.5078923)"
       inkscape:export-filename="C:\Documents and Settings\windows\Mes documents\Thibault\onlitaelbeuf\vallect\img\Classique\auteur.png"
       inkscape:export-xdpi="94.411682"
       inkscape:export-ydpi="94.411682">
      <path
         id="path2530"
         d="M 268.71793,244.70717 L 265.21509,249.71123 L 292.237,247.2092 L 386.3133,255.2157 L 401.82588,225.19135 L 410.33278,217.68526 L 409.33197,118.60491 L 369.2995,120.10612 L 367.29788,133.61708 L 392.31817,136.61952 L 391.31736,143.12479 L 378.80721,150.63088 L 375.80478,152.1321 L 384.31168,154.13372 L 380.80884,168.14508 L 363.29463,173.14914 L 358.79098,175.65117 L 357.79017,167.64468 L 354.28733,169.14589 L 353.78692,173.14914 L 346.28083,168.14508 L 319.25892,136.11911 L 325.26379,135.1183 L 329.76744,130.61465 L 332.26947,138.12073 L 337.77393,137.11992 L 340.77637,129.11343 L 343.2784,127.61221 L 344.77962,108.09638 L 345.28002,100.08989 L 346.78124,85.578121 L 345.28002,81.074468 L 334.27109,69.064728 L 324.26298,61.558641 L 316.75689,56.554583 L 310.75202,53.552148 L 303.24593,56.054177 L 294.73903,60.057423 L 292.73741,64.561076 L 287.73335,71.066352 L 286.23213,76.570816 L 280.72767,90.081773 L 280.22726,101.59111 L 279.22645,114.60166 L 286.23213,120.60653 L 287.73335,124.60978 L 286.73254,133.61708 L 280.72767,138.12073 L 250.20291,221.68851 L 253.20535,222.68932 L 269.71874,225.19135 L 293.73822,226.69256 L 296.74066,227.69338 L 286.23213,233.69825 L 268.71793,244.70717 z"
         style="opacity:1;fill:#ffffff;fill-opacity:1;fill-rule:evenodd;stroke:none;stroke-width:0;stroke-linecap:round;stroke-linejoin:round;stroke-miterlimit:4;stroke-dasharray:none;stroke-dashoffset:46.99999809;stroke-opacity:1" />
      <g
         transform="translate(391.55085,130.9083)"
         id="g3308">
        <path
           style="opacity:1;fill:#8e0050;fill-opacity:1;fill-rule:evenodd;stroke:none;stroke-width:0;stroke-linecap:round;stroke-linejoin:round;stroke-miterlimit:4;stroke-dasharray:none;stroke-dashoffset:46.99999809;stroke-opacity:1"
           d="M -70.644461,44.603385 L -93.081376,15.925171 L -105.98381,9.8781112 L -116.52022,7.3989577 C -116.52022,7.3989577 -132.32699,13.648696 -136.27126,17.18213 C -140.21553,20.715564 -143.79091,27.851975 -143.79091,27.851975 L -145.65027,36.529012 L -149.369,52.64351 L -151.22837,56.36224 L -152.46794,62.560124 L -150.60858,74.336104 L -149.98879,78.674622 C -149.98879,78.674622 -151.58598,90.998975 -151.96805,93.922772 C -152.2312,96.563262 -151.45156,98.984938 -149.72868,99.627539 C -147.4305,101.09201 -136.97323,99.127639 -136.97323,99.127639 L -128.91599,94.789121 L -130.15556,91.690179 L -138.21281,89.211025 L -132.01493,76.195469 L -120.23895,66.898643 L -115.90043,68.758008 L -111.56062,72.851502 L -89.315039,78.462353 L -75.9077,79.408413 L -65.697569,78.054834 L -60.739262,74.955892 L -52.682013,68.13822 L -48.343494,64.41949 L -41.26506,59.33016 L -36.747028,56.638738 L -36.567515,42.726896 L -44.624764,36.529012 L -48.963283,30.331128 L -52.682013,17.93536 L -52.682013,12.357265 L -57.020532,8.0187461 L -61.978839,4.3000157 L -72.515242,6.7791693 L -70.036088,14.21663 L -71.895453,16.695784 L -71.895453,25.992609 L -71.895453,36.529012 L -70.644461,44.603385 z"
           id="path3393"
           sodipodi:nodetypes="cccczcccccccccccccccccccccccccccccccccccccc" />
        <path
           id="path3303"
           transform="translate(-391.55085,-130.9083)"
           d="M 389.8125,145.09375 L 378.65625,149.5 L 375.71875,153.90625 L 387.75,153.625 L 409.75,155.5 L 409.75,148.125 L 401.84375,146.875 L 389.8125,145.09375 z M 393.90625,175.34375 L 393.3125,176.8125 L 398.03125,180.3125 L 409.75,181.28125 L 409.75,176.375 L 393.90625,175.34375 z"
           style="opacity:1;fill:#142194;fill-opacity:1;fill-rule:evenodd;stroke:none;stroke-width:0;stroke-linecap:round;stroke-linejoin:round;stroke-miterlimit:4;stroke-dasharray:none;stroke-dashoffset:46.99999809;stroke-opacity:1" />
        <path
           id="path2570"
           transform="translate(-391.55085,-130.9083)"
           d="M 310.03125,53.90625 C 309.70202,53.908676 309.53125,55.038517 309.53125,55.34375 C 309.53124,55.605011 317.47966,58.178926 321.4375,60.5625 C 322.68905,61.316235 324.95289,63.743639 326.8125,65.5 C 328.67211,67.256308 330.4101,66.84938 330.875,67.1875 C 332.13087,68.100808 337.875,73.65083 337.875,74.34375 C 337.87501,74.673487 336.41291,77.664381 336,78.21875 C 335.5871,78.773078 334.97997,79.735769 334.65625,80.375 C 334.33255,81.014248 333.91192,81.562501 333.71875,81.5625 C 333.52559,81.562498 333.3628,81.874458 333.375,82.28125 C 333.39336,82.893738 333.5291,82.87307 334.09375,82.0625 C 334.68612,81.212158 338.05655,78.59375 338.5625,78.59375 C 338.90273,78.593748 344.8125,81.397289 344.8125,81.9375 C 344.8125,82.233938 340.41992,85.7277 338.71875,87.46875 C 337.01759,89.209848 335.02487,91.531228 334.28125,92.625 C 333.53765,93.718818 332.51887,94.908431 332.03125,95.25 C 331.07671,95.918568 330.46215,96.857501 328.03125,101.28125 C 326.34194,104.35551 326.23777,105.17699 326.09375,115.03125 C 326.04985,118.03543 325.88889,119.15625 325.5,119.15625 C 325.20662,119.15625 324.84013,118.50108 324.6875,117.6875 C 324.29991,115.62135 323.48047,115.7673 323.8125,117.84375 C 324.00205,119.029 323.88964,119.62474 323.4375,120 C 322.62506,120.67428 322.52778,120.34001 322.1875,115.96875 C 321.9642,113.10014 322.06258,112.16061 322.8125,110.15625 C 323.44791,108.45801 323.57104,107.57273 323.28125,107.03125 C 322.98116,106.47053 323.08426,105.99499 323.6875,105.25 L 324.53125,104.25 L 323.34375,103.53125 C 322.18739,102.82883 322.16576,102.84178 321.4375,104.03125 C 321.03072,104.69567 320.6875,105.65931 320.6875,106.15625 C 320.68751,106.65322 320.21221,107.87301 319.625,108.875 C 318.93092,110.05935 318.58266,111.24337 318.625,112.28125 C 318.66283,113.20788 318.20048,115.02386 317.53125,116.59375 C 316.18015,119.76314 315.13733,125.49935 315.25,129.09375 C 315.29371,130.48846 315.29278,132.31142 315.25,133.125 L 315.15625,134.59375 L 314.15625,133.34375 C 312.65854,131.51111 312.48335,132.21973 313.8125,134.84375 C 314.69825,136.59243 315.28618,137.20635 316.28125,137.5 C 317.33045,137.80963 317.81046,138.39059 318.6875,140.375 C 319.30552,141.7733 319.60105,142.92278 319.375,143.0625 C 319.15577,143.198 318.11199,142.80257 317.0625,142.1875 C 316.01302,141.57249 314.94818,141.16311 314.6875,141.25 C 313.93216,141.50181 316.47119,143.67175 318.78125,144.75 C 319.94351,145.29246 321.08005,145.68717 321.3125,145.625 C 322.09086,145.41686 322.03468,143.693 321.1875,142.3125 C 320.72619,141.56076 320.26584,140.27277 320.1875,139.46875 C 320.03705,137.92486 320.298,137.75115 323.28125,137.15625 C 323.88661,137.03555 325.56713,135.86892 327.03125,134.5625 C 330.05537,131.86413 330.4298,131.98475 330.5625,135.65625 C 330.64626,137.97349 330.74607,138.13609 332.15625,138.40625 C 333.23491,138.61288 334.21875,139.67529 334.21875,140.625 C 334.21876,140.94452 334.42026,141.55907 334.65625,142 C 335.16736,142.955 336.3125,142.64741 336.3125,141.5625 C 336.31251,141.15094 336.62007,140.57063 336.96875,140.28125 C 337.31743,139.99187 337.59375,139.50769 337.59375,139.1875 C 337.59376,138.86727 337.97259,138.59375 338.4375,138.59375 C 339.02958,138.59376 339.27475,138.32233 339.28125,137.65625 C 339.28637,137.13324 339.69965,135.85852 340.1875,134.8125 L 341.0625,132.90625 L 341.65625,134.28125 C 341.97755,135.03672 342.55789,135.65625 342.9375,135.65625 C 343.51193,135.65626 343.59101,135.32597 343.375,133.75 C 343.23226,132.70855 343.39511,129.91843 343.75,127.53125 C 344.50806,122.43241 345.1807,115.33733 345.40625,110.25 C 345.49459,108.25777 345.97617,105.11934 346.46875,103.28125 C 347.25805,100.33593 347.36253,98.959289 347.28125,91.59375 C 347.20112,84.331188 347.26823,83.13919 347.875,82.46875 C 348.91258,81.322228 348.73055,80.690271 347.40625,80.8125 C 346.17386,80.926278 345.33379,80.118061 334.28125,68.125 C 330.6994,64.238308 329.75825,63.403429 329,63.59375 C 328.32268,63.763742 327.17397,63.156732 324.65625,61.3125 C 322.76812,59.929442 321.0952,58.598922 320.9375,58.34375 C 320.74972,58.039902 310.36049,53.903826 310.03125,53.90625 z M 305.15625,55.53125 C 303.49145,55.644885 298.1428,57.660995 296.84375,58.25 C 294.08183,59.502322 292.48859,61.173907 292.9375,62.34375 C 293.09071,62.742972 292.09678,64.57952 290.375,67.09375 C 285.84828,73.704038 282.08576,82.402831 281,88.75 C 280.74155,90.260928 280.15899,92.810348 279.6875,94.4375 C 279.02333,96.729678 278.76995,99.20552 278.5625,105.46875 C 278.41525,109.9149 278.61953,113.87761 278.59375,114.34375 C 278.49812,116.07286 277.77811,115.77237 279.09375,116.375 C 281.27338,117.37338 280.06085,114.67944 280.5,115.5 C 280.75091,115.96882 280.21875,116.89085 280.21875,117.1875 C 280.21874,117.48419 281.31723,117.46204 281.875,118.75 C 283.44754,122.38117 286.85493,120.16076 286.6875,122.09375 C 286.50428,124.20915 286.54016,124.83073 285.84375,130.90625 C 284.38469,133.79799 283.84523,133.43617 280.6875,136.03125 C 278.86938,137.22884 277.33712,137.34148 273.5,138.46875 C 271.58239,138.85248 269.28502,139.25076 268.28125,139.34375 C 265.30987,139.61902 261.52019,141.62869 257,145.375 C 252.24666,149.31458 250.85445,150.80973 249.875,152.9375 C 249.49251,153.76841 248.56727,155.38252 247.84375,156.53125 C 246.97757,157.90647 246.53129,159.21442 246.5,160.34375 C 246.47386,161.28708 246.10075,162.8202 245.6875,163.75 C 245.21735,164.80782 244.94033,166.38295 244.96875,167.9375 C 244.99691,169.47941 244.55632,172.20787 243.78125,175.125 C 241.81383,182.52973 241.36586,183.81704 240.15625,185.5625 C 239.0387,187.17511 239.02338,187.28652 239.1875,192.8125 C 239.27916,195.89894 239.50588,198.64694 239.6875,198.9375 C 239.8691,199.22807 240.04935,199.4698 240.09375,199.46875 C 240.13813,199.4677 240.23149,196.69714 240.28125,193.3125 L 240.34375,187.15625 L 241.625,185.96875 C 242.33069,185.30957 242.93531,184.60354 242.9375,184.40625 C 242.94988,183.2885 244.67015,175.67559 245.1875,174.46875 C 245.52422,173.68324 245.95646,172.3048 246.15625,171.375 C 246.48249,169.85664 246.64842,169.672 247.6875,169.78125 C 249.01273,169.92064 249.27293,168.94608 248.21875,167.78125 C 247.66515,167.16953 247.68001,166.82064 248.46875,164.78125 C 248.95827,163.51546 249.68588,161.93998 249.71875,161.21875 C 249.95355,156.06669 250.80651,154.91938 255.96875,151.46875 C 259.47491,149.12514 259.19079,148.85303 259.09375,148.34375 C 258.83964,147.01008 257.17966,149.00581 254.3125,150.96875 C 251.52948,152.87408 252.65625,152.47233 252.65625,151.75 C 252.65624,151.18633 255.78648,148.46915 257.375,147.65625 C 258.14436,147.26257 259.70972,146.21006 260.84375,145.3125 C 262.97243,143.6277 263.3898,143.47629 269.6875,142.03125 C 273.38032,141.1839 273.43956,141.16582 274.125,141.96875 C 274.54724,142.46332 275.97244,141.38487 277.5,141.65625 C 279.87038,142.07736 280.60998,142.64825 282.15625,141.625 C 283.76603,140.5597 283.17192,141.53179 284.28125,142.28125 C 284.90271,142.7011 285.69978,143.0675 286.0625,143.09375 C 287.18361,143.17498 295.05692,145.87866 296.0625,146.53125 C 296.58552,146.87067 299,147.37256 299,147.625 C 298.99999,147.87745 299.26871,150.35548 302,153.15625 C 307.05758,158.34249 311.13868,163.16209 312.15625,165.09375 C 312.46713,165.68389 313.32735,166.97207 314.0625,167.9375 C 314.79766,168.90298 316.13114,171.12864 317.03125,172.90625 C 318.58993,175.98442 318.653,176.1927 318,177.125 C 317.11599,178.38713 317.09798,180.82211 317.96875,181.15625 C 318.871,181.50248 319.21099,181.03589 319.21875,179.46875 C 319.22496,178.21564 319.3139,178.12575 320.59375,178.25 C 322.04512,178.39087 322.24719,177.98989 321.5,176.59375 C 320.84562,175.37098 321.33413,174.96434 322.875,175.40625 C 323.61194,175.61758 324.28517,175.71481 324.375,175.625 C 324.69906,175.30092 323.30647,171.80005 322.78125,171.625 C 322.43387,171.5092 322.33199,171.68719 322.5,172.125 C 322.86671,173.08063 322.08991,173.44271 321.625,172.53125 C 320.44653,170.22087 320.10717,163.01394 320.90625,156.96875 C 321.1204,155.34875 320.27054,153.22945 319.65625,153.84375 C 319.28716,154.21284 319.29031,165.83682 319.65625,169.46875 C 319.95394,172.42321 319.91978,172.58711 319.25,172.03125 C 318.85479,171.70325 317.89799,170.36165 317.125,169.0625 C 312.28358,160.92563 310.19291,158.25089 304.28125,152.53125 C 301.88362,150.21148 300.09453,148.12335 299.96875,147.5 C 299.67837,146.06076 296.28793,144.05338 291.25,142.375 C 289.07348,141.64989 287.01572,140.79697 286.6875,140.46875 C 286.35929,140.1405 285.77727,139.875 285.40625,139.875 C 282.76517,139.19586 282.37953,139.12953 280.78125,138.3125 C 282.28307,137.6824 283.48486,136.75511 284.5625,135.5625 C 285.74655,134.25215 286.37514,134.7814 287.5,131.28125 C 287.67785,130.72789 287.70904,130.26439 287.6875,129.90625 L 287.9375,129.9375 L 288.0625,126.65625 C 288.17963,123.54939 288.24824,123.36394 289.375,122.78125 C 290.76517,122.06239 291.53125,122.53652 291.53125,124.125 C 291.53126,124.67117 291.82675,125.7086 292.1875,126.40625 C 292.70086,127.39894 293.03531,127.5919 293.71875,127.375 C 294.42747,127.15007 295.34989,127.89064 298.65625,131.28125 C 301.97365,134.68319 303.48359,135.87436 306.75,137.65625 C 310.4814,139.6918 312.65625,140.36032 312.65625,139.5 C 312.65626,139.00476 310.96933,137.27445 309.6875,136.4375 C 308.67432,135.77595 308.6652,135.72746 309.375,134.9375 C 309.7818,134.48474 310.125,133.92183 310.125,133.71875 C 310.12501,133.51567 310.67866,132.77093 311.34375,132.0625 C 312.28512,131.05984 312.65659,130.11643 313.03125,127.75 C 313.29597,126.07809 313.5,123.95543 313.5,123.03125 C 313.50001,121.98053 314.0438,120.18006 314.96875,118.25 C 316.54823,114.95423 316.86195,112.84503 315.84375,112 C 314.94509,111.25418 313.9375,111.77642 313.9375,113 C 313.93751,113.5747 313.72896,114.171 313.5,114.3125 C 313.24184,114.47209 313.18388,114.08067 313.34375,113.28125 C 313.50891,112.45551 313.42962,111.96875 313.125,111.96875 C 312.8635,111.96875 312.62373,112.20944 312.59375,112.5 C 312.56379,112.79057 312.49845,113.51263 312.4375,114.09375 C 312.37656,114.67488 312.20611,116.46661 312.0625,118.09375 C 311.75751,121.54933 310.85419,126.42531 309.90625,129.71875 C 309.53828,130.99723 309.03734,132.79354 308.78125,133.6875 C 308.35105,135.18927 308.20092,135.29017 307.0625,135.0625 C 305.87794,134.82557 301.47473,132.14314 301,131.375 C 300.60725,130.73953 301.65224,129.3125 302.5,129.3125 C 303.76571,129.31251 303.95073,128.5141 302.875,127.625 C 302.02912,126.92583 301.80996,126.90996 301.40625,127.4375 C 300.69701,128.36422 300.48985,128.18734 299.9375,126.34375 C 299.36268,124.42519 299.33608,124.41395 298.40625,125.34375 C 297.78025,125.96976 297.66831,125.95027 297.15625,125.25 C 296.84997,124.83112 296.59375,124.24176 296.59375,123.9375 C 296.59376,123.63325 296.41994,123.40625 296.1875,123.40625 C 295.95505,123.40625 295.75,123.82442 295.75,124.34375 C 295.75001,124.99618 295.2306,124.3739 294.0625,122.375 C 293.13271,120.78386 292.375,119.19779 292.375,118.84375 C 292.37501,118.26182 291.75077,115.71203 291.21875,114.09375 C 290.84825,112.96679 290.31341,114.96237 290.28125,117.59375 C 290.25864,119.4449 290.10177,120 289.625,120 C 288.86201,120 288.37032,118.27336 288.6875,116.6875 C 288.91586,115.54578 288.43337,114.0979 287.96875,114.5625 C 287.83968,114.69162 287.68662,115.87048 287.65625,117.1875 C 287.6259,118.50448 287.45188,119.59375 287.25,119.59375 C 287.04814,119.59375 286.46052,119.14764 285.9375,118.625 C 285.12846,117.81659 284.95947,117.15081 284.84375,114.09375 C 284.72128,110.85842 284.98918,108.18124 285.84375,104.625 C 286.0689,103.68813 286.01509,103.47572 285.5625,103.625 C 285.23905,103.73163 284.91267,104.2808 284.84375,104.84375 C 284.68348,106.15283 283.90829,108.16377 283.5625,108.15625 C 281.33229,108.10782 280.7959,106.72091 281.4375,102.625 C 281.67052,101.13749 281.93575,99.236419 282.03125,98.375 C 282.12675,97.513618 282.48765,96.102241 282.84375,95.25 C 283.66763,93.278228 283.65342,92.354128 282.8125,91.65625 C 281.99875,90.980868 282.15044,90.077852 284,84.375 C 285.24787,80.527418 285.4279,80.231191 286.34375,80.40625 C 287.13193,80.556918 287.45522,80.332179 287.90625,79.28125 C 289.83498,74.787348 290.1507,69.282481 292.21875,68.53125 C 294.24345,67.795763 298.92959,64.700179 298,66.46875 C 297.71464,67.011673 293.38201,71.83021 292.71875,72.59375 C 292.05549,73.357328 291.53125,74.219131 291.53125,74.53125 C 291.53126,74.843368 291.60298,75.76953 291.25,76.0625 C 290.10542,77.012379 289.24486,81.088223 289.59375,82.1875 C 289.72865,82.612537 289.41297,84.29426 289.375,85.5 C 289.37499,85.5 288.64016,88.662447 290.25,90.90625 C 291.84299,93.12657 290.96875,83.6875 290.96875,83.6875 C 292.42986,80.650648 293.16481,78.644211 293,78.125 C 292.79263,77.471558 292.93129,77.3125 293.78125,77.3125 C 294.4516,77.312498 294.93053,77.01426 295.09375,76.5 C 295.39963,75.536248 298.76757,72.44222 300.46875,71.5625 C 301.51992,71.018898 301.69961,71.024009 301.90625,71.5625 C 302.03621,71.901148 301.94603,72.579431 301.6875,73.0625 C 301.37471,73.646958 301.36511,73.9375 301.65625,73.9375 C 301.8969,73.937498 302.09375,73.681839 302.09375,73.375 C 302.09376,73.068208 302.66143,72.20171 303.34375,71.4375 L 304.5625,70.0625 L 303.46875,69.03125 C 302.86872,68.475138 302.31257,68.03125 302.21875,68.03125 C 301.04268,68.031248 297.79379,71.019189 295.5,74.1875 C 293.95881,76.316328 293.90254,74.972652 295.4375,72.59375 C 296.93717,70.269578 300.55609,66.343752 301.1875,66.34375 C 301.38385,66.343748 302.38563,65.68634 303.40625,64.875 C 304.42689,64.063698 305.4751,63.377283 305.75,63.375 C 306.47806,63.369042 306.82157,61.93285 306.5,60.21875 C 306.22693,58.763102 306.28815,58.720397 308.1875,57.90625 C 310.44367,56.939142 310.81358,55.78125 308.875,55.78125 C 307.9931,55.781252 307.49296,56.622968 306.125,57.3125 C 303.22568,58.773935 304.55135,60.822152 304,61.1875 C 303.44865,61.552839 301.22649,61.330911 299.5625,62.6875 C 296.53061,65.159342 295.34375,65.48523 295.34375,63.84375 C 295.34376,63.384802 295.92528,60.557929 297.59375,59.6875 C 303.81388,56.442499 306.09344,56.114196 305.625,55.59375 C 305.56079,55.522407 305.39408,55.515016 305.15625,55.53125 z M 316.40625,58.71875 C 315.66682,58.878393 311.78427,61.696439 309.9375,63.53125 C 307.08506,66.365242 306.20362,67.593752 307.03125,67.59375 C 307.4345,67.593748 310.18499,65.53074 311.3125,64.375 C 311.84493,63.829248 315.39265,61.524748 315.90625,61.53125 C 316.66504,61.540888 313.53643,63.977721 310.875,66.53125 C 309.07352,68.259658 307.59375,69.875951 307.59375,70.125 C 307.59376,70.747638 309.13913,69.918709 310.75,68.4375 C 311.44735,67.796268 313.20344,66.478459 314.65625,65.5 C 316.10908,64.521558 319.66025,62.007006 320,61.34375 C 320.55647,60.257421 318.94682,60.215883 318.125,60.53125 C 317.73073,60.682548 317.46648,60.424199 317.375,59.78125 C 317.26042,58.975968 316.98136,58.594582 316.40625,58.71875 z M 322.25,62.53125 C 321.58754,62.53484 320.24824,63.373956 318.21875,65.03125 C 317.24599,65.825628 316.46875,66.715651 316.46875,67 C 316.46876,67.308438 317.70293,66.857528 319.53125,65.90625 C 321.67389,64.791418 322.62432,64.063562 322.71875,63.4375 C 322.80795,62.846277 322.64748,62.529097 322.25,62.53125 z M 324.46875,66.5 C 323.94703,66.455456 323.25284,66.879111 321.6875,68 C 317.65991,70.884128 317.39079,72.320648 321.28125,70.125 C 324.55964,68.274788 325.06232,68.581636 325.375,69.71875 C 323.10087,72.008121 320.32282,73.9375 321.53125,73.9375 C 322.55029,73.937498 322.57218,74.037139 321.71875,75.6875 C 320.92782,77.217028 321.17082,77.128171 324.40625,74.5 C 325.63568,73.501338 326.80147,72.6875 327,72.6875 C 327.73208,72.687498 329.7209,70.696281 329.0625,69.96875 C 328.52514,69.374993 326.62274,69.611121 327,68.90625 C 327.53634,67.904078 327.29101,67.1875 326.375,67.1875 C 326.0369,67.187498 325.39833,66.955788 324.96875,66.6875 C 324.80477,66.585093 324.64266,66.514847 324.46875,66.5 z M 314.9375,68.1875 C 314.88699,68.185258 314.83937,68.214085 314.78125,68.25 C 314.54881,68.393698 314.34375,68.687489 314.34375,68.90625 C 314.34376,69.124968 314.5488,69.28125 314.78125,69.28125 C 315.01372,69.281248 315.1875,68.98741 315.1875,68.625 C 315.18751,68.35322 315.08906,68.194221 314.9375,68.1875 z M 317.71875,72.28125 C 317.54727,72.27906 317.31446,72.327772 316.96875,72.4375 C 316.50781,72.583808 316.00645,73.001169 315.875,73.34375 C 315.67126,73.874708 315.83281,73.852488 316.9375,73.28125 C 317.97969,72.742328 318.2332,72.287813 317.71875,72.28125 z M 330.125,72.75 C 329.15061,72.605378 324.0625,77.747068 324.0625,78.875 C 324.06251,79.332128 324.6771,79.005541 325.9375,77.84375 C 326.95702,76.903988 328.55973,75.613282 329.53125,75 C 331.36033,73.845348 331.59834,72.968681 330.125,72.75 z M 333.28125,75.0625 C 333.20717,75.071905 333.15155,75.088901 333.09375,75.125 C 332.49392,75.499668 329.15625,79.95231 329.15625,80.375 C 329.15626,80.550468 330.36407,79.704272 331.875,78.5 C 333.38593,77.295778 334.625,76.188182 334.625,76.03125 C 334.62501,75.546061 333.7999,74.996654 333.28125,75.0625 z M 338.8125,81.21875 C 338.29262,81.206732 337.55364,81.808677 336.25,83.28125 C 335.13311,84.542908 334.22132,85.70066 334.21875,85.875 C 334.21184,86.346028 334.96829,86.256398 335.28125,85.75 C 335.43074,85.508118 336.28723,84.84957 337.1875,84.28125 C 339.26034,82.972718 340.04321,81.650332 339,81.25 C 338.93306,81.224307 338.88677,81.220467 338.8125,81.21875 z M 303.15625,81.65625 C 303.11501,81.659686 303.0516,81.667535 302.96875,81.71875 C 302.71437,81.875968 302.31939,82.42626 302.0625,82.90625 C 301.72785,83.531588 301.7311,83.673561 302.0625,83.46875 C 302.31691,83.311518 302.71185,82.792491 302.96875,82.3125 C 303.21974,81.843493 303.28001,81.645935 303.15625,81.65625 z M 297.34375,81.78125 C 297.02053,81.701387 295.76152,83.345738 295.75,84 C 295.74484,84.293728 295.94076,84.846382 296.15625,85.25 C 296.37174,85.653618 296.6241,86.311972 296.75,86.71875 C 296.88907,87.168108 297.41255,87.468751 298.0625,87.46875 C 298.65094,87.468748 299.12511,87.504382 299.125,87.5625 C 299.12489,87.620608 298.75415,88.69325 298.28125,89.9375 C 297.13792,92.945648 296.41046,94.222933 293.71875,94.46875 C 292.58739,94.572071 290.19332,100.47499 291.21875,99.90625 C 291.32661,99.846434 293.94841,96.03125 294.375,96.03125 C 295.49868,96.031246 296.51048,96.118589 298.9375,92.4375 C 300.76643,89.663568 301.23849,89.2647 300.8125,88.46875 C 300.54344,87.965978 300.4374,87.18008 300.59375,86.6875 C 300.90662,85.701748 300.44759,85.489909 299.65625,86.28125 C 299.26954,86.667968 299.00138,86.6889 298.625,86.3125 C 298.24864,85.936138 298.24863,85.412499 298.625,84.15625 C 299.26533,82.019098 299.27227,82.022099 298.28125,82.28125 C 297.74258,82.422118 297.44349,82.274319 297.4375,81.90625 C 297.43605,81.816622 297.38993,81.792659 297.34375,81.78125 z M 344,85.53125 C 344.33245,85.509236 344.64747,85.521521 344.875,85.59375 C 345.65577,85.841538 345.69801,86.21823 345.5625,92.0625 C 345.39475,99.297528 345.00138,100.3951 341.1875,104.65625 C 338.77572,107.35086 338.38574,108.31042 339.53125,108.75 C 340.10183,108.96893 340.18211,109.77714 340.0625,114.25 C 339.8978,120.40917 339.47779,121.28125 336.625,121.28125 C 335.32241,121.28125 334.51872,120.95456 333.125,119.8125 C 330.21136,117.42502 329.72953,117.84906 331.46875,121.28125 C 332.73944,123.78885 332.79484,124.48658 331.71875,125.0625 C 330.77679,125.56662 327.57068,125.65861 327.3125,125.1875 C 327.21696,125.01316 327.19529,123.73845 327.25,122.34375 C 327.94339,104.66538 327.92744,104.75276 329.6875,106.40625 C 330.39728,107.07304 336.34788,106.60429 333.5625,104.03125 C 334.46301,101.83966 335.15163,107.05191 335.5,105.15625 C 335.75025,103.79439 335.78581,103.48172 334.65625,102.53125 C 333.95441,101.9407 332.9974,101.36672 332.53125,101.21875 C 331.55505,100.90892 331.44985,100.2416 332.25,99.1875 C 332.99459,98.206638 333.66493,98.28553 335.6875,99.53125 C 336.61732,100.10393 337.83495,100.56132 338.375,100.5625 C 340.02919,100.56614 339.2863,99.201669 336.875,97.8125 C 335.66457,97.115148 334.66403,96.25238 334.65625,95.875 C 334.62484,94.348598 341.14319,86.439052 343.03125,85.71875 C 343.30812,85.613108 343.66756,85.553262 344,85.53125 z M 309.625,89.59375 C 309.42239,89.528233 308.86298,90.411296 308.625,91.375 C 308.38533,92.345488 308.50017,92.60488 309.375,92.9375 C 310.34369,93.305778 310.41379,93.469091 310.21875,95.5625 C 310.10338,96.800958 309.76845,97.98014 309.46875,98.15625 C 308.82646,98.533748 308.35354,99.995119 307.40625,104.59375 C 307.02319,106.45336 306.43819,108.82898 306.125,109.875 C 305.81182,110.92104 305.24555,113.02032 304.84375,114.53125 C 304.44196,116.04218 303.75074,118.43169 303.3125,119.875 C 302.87428,121.31831 302.5,122.99496 302.5,123.59375 C 302.50001,124.54113 302.62871,124.6327 303.34375,124.25 C 304.55181,123.60349 304.7325,123.10853 305.3125,119.375 C 306.46805,111.93682 308.21775,107.06541 310,106.28125 C 311.08327,105.8046 311.33909,104.71342 310.84375,102.78125 C 310.53515,101.5775 310.65282,101.28536 311.6875,100.375 C 312.33807,99.802658 312.63431,99.31986 312.34375,99.3125 C 311.46255,99.290228 311.75382,97.425932 312.875,95.90625 C 313.45614,95.118578 313.9375,94.43144 313.9375,94.34375 C 313.93751,94.256048 313.38924,94.23773 312.75,94.3125 C 311.67994,94.437598 311.60333,94.339149 311.71875,93.125 C 311.83358,91.917028 311.76716,91.811499 310.78125,92 C 309.69683,92.207298 309.44985,91.764221 309.6875,90 C 309.72316,89.735303 309.69254,89.615588 309.625,89.59375 z M 305.03125,90.4375 C 304.62868,90.437498 300.8125,97.925208 300.8125,98.71875 C 300.81251,99.599828 301.0396,99.461831 302.3125,97.625 C 302.95686,96.695198 303.70967,95.906252 304,95.90625 C 304.29034,95.906248 304.85904,95.440431 305.25,94.84375 C 305.80662,93.994248 305.82952,93.628591 305.4375,93.15625 C 305.16216,92.824438 305.04491,92.082432 305.15625,91.5 C 305.26761,90.917518 305.20899,90.4375 305.03125,90.4375 z M 287.625,90.84375 C 286.25653,96.476348 285.625,99.82098 285.625,101.1875 C 285.62501,102.79073 285.63735,102.81492 286.46875,102.0625 C 287.30975,101.30141 287.3125,101.31122 287.3125,106.5625 C 287.31251,109.46542 287.35593,112.164 287.5625,112.125 C 289.75299,111.71147 288.81604,103.27224 288.5625,101.03125 C 288.19908,97.818988 286.41264,97.943379 287.65625,95.25 C 289.03751,92.25852 291.41243,93.515029 289.65625,92.78125 C 288.57632,92.330038 288.18233,91.89282 288.0625,91 L 287.625,90.84375 z M 320.28125,92.96875 C 319.21859,92.968748 318.10781,93.91108 317.28125,95.53125 C 316.35509,97.346698 314.79022,102.07247 314.78125,103.0625 C 314.77728,103.50247 315.02376,103.44861 315.71875,102.8125 C 316.24177,102.33378 317.10198,101.81487 317.625,101.65625 C 318.63102,101.35116 318.85899,100.77809 318.15625,100.34375 C 317.43041,99.895158 317.69004,98.84726 319,96.90625 C 320.45135,94.755788 321.03118,92.968751 320.28125,92.96875 z M 291.40625,103.09375 C 291.04119,103.09375 290.61614,103.47306 290.46875,103.9375 C 290.23514,104.67353 290.09277,109.51747 290.21875,112.3125 C 290.24233,112.83552 290.41895,113.25 290.625,113.25 C 291.03782,113.25 291.35906,111.34357 291.78125,106.375 C 292.0203,103.56176 291.97637,103.09375 291.40625,103.09375 z M 314.625,104.0625 C 314.58328,104.04655 314.51041,104.08465 314.4375,104.15625 C 314.20079,104.3887 313.89993,105.45397 313.75,106.5 C 313.41212,108.85743 314.11853,107.92962 314.5625,105.4375 C 314.71557,104.57836 314.75018,104.11035 314.625,104.0625 z M 298.4375,106.25 C 298.29843,106.25778 298.11222,106.37086 297.8125,106.53125 C 296.94416,106.99598 296.92535,107.18797 297.15625,111.90625 C 297.28865,114.61172 297.60298,117.46329 297.875,118.21875 C 298.14704,118.97421 298.43311,119.59375 298.5,119.59375 C 298.56689,119.59375 298.61893,117.15125 298.625,114.1875 C 298.63109,111.22376 298.6707,108.60745 298.71875,108.375 C 298.76682,108.14255 298.77752,107.53117 298.75,107 C 298.72239,106.46705 298.6693,106.23703 298.4375,106.25 z M 302.375,106.34375 C 302.03205,106.33882 301.71522,106.39035 301.65625,106.59375 C 301.44559,107.32042 299.31451,120.29903 301.21875,125.75 C 301.52374,126.62306 302.44658,112.0357 302.53125,110.28125 C 302.67191,107.36683 303.86262,106.40625 303.25,106.40625 C 303.08348,106.40625 302.71795,106.34868 302.375,106.34375 z M 343.46875,107.125 L 343.5625,108.375 C 343.6781,110.36401 343.53808,113.04528 343.03125,118.75 C 342.77311,121.65563 342.34048,124.5839 342.0625,125.28125 L 341.53125,126.5625 L 341.03125,125.59375 C 340.69209,124.96207 340.19954,124.66708 339.625,124.75 C 338.32114,124.93816 338.22221,123.973 339.46875,123.15625 C 340.06431,122.76603 340.5625,122.13646 340.5625,121.75 C 340.56251,121.36358 340.80975,120.67727 341.125,120.21875 C 341.4854,119.6946 341.78965,117.56309 341.9375,114.46875 C 342.0926,111.22281 342.38114,109.10862 342.8125,108.3125 L 343.46875,107.125 z M 294.15625,107.84375 C 293.67677,107.9154 293.21875,108.41616 293.21875,109.125 C 293.21876,110.56446 295.03459,121.52421 295.3125,122.40625 C 295.70169,123.64145 296.55632,122.52267 296.4375,121.0625 C 296.37746,120.32453 296.02135,119.03772 296.34375,118.40625 C 296.66616,117.77484 296.7931,116.97367 296.625,116.625 C 296.45691,116.27632 296.08108,115.58234 295.8125,115.0625 C 295.54393,114.54266 295.31606,112.92474 295.3125,111.46875 C 295.30895,110.01277 295.14293,108.54321 294.9375,108.21875 C 294.73482,107.89865 294.44394,107.80076 294.15625,107.84375 z M 282.15625,109.875 C 282.24253,109.87843 282.36176,109.90154 282.46875,109.9375 C 282.70119,109.9375 283.125,113.0351 283.125,113.5 C 283.12499,113.9649 282.4512,114.53125 282.21875,114.53125 C 281.98631,114.53125 281.8125,114.12115 281.8125,113.65625 C 281.81251,113.2204 280.86211,109.82352 282.15625,109.875 z M 320.34375,116.21875 C 320.84401,116.21875 320.76117,118.67398 320.21875,119.6875 C 319.95672,120.17713 319.39034,121.99033 318.96875,123.71875 C 318.28709,126.51335 317.71787,128.02435 317.75,126.9375 C 317.91009,121.52157 319.18515,116.21875 320.34375,116.21875 z M 409.75,119.15625 C 409.39986,119.18439 409.13508,119.18402 408.75,119.21875 C 402.31124,119.79941 383.48808,119.9407 374.0625,119.46875 C 368.15695,119.17307 367.59375,119.3818 367.59375,122.0625 C 367.59376,122.933 367.40814,124.76241 367.15625,126.125 C 366.89356,127.54608 366.80068,129.85765 366.96875,131.53125 C 367.37679,135.59424 367.94171,135.90031 375.5625,136.25 C 381.65615,136.52966 389.25427,137.24289 390.25,137.625 C 390.68068,137.79025 390.84375,138.65141 390.84375,140.78125 L 390.84375,143.71875 L 389.25,144.34375 C 388.37832,144.69302 386.44842,145.5818 384.9375,146.3125 C 383.42658,147.04316 381.05707,147.95149 379.6875,148.3125 C 378.09095,148.73328 377.03939,149.27056 376.75,149.8125 C 376.50175,150.27741 375.94736,151.15143 375.53125,151.78125 C 374.64386,153.12448 374.57629,154.06449 375.3125,154.53125 C 375.60307,154.71544 377.5642,154.97368 379.65625,155.09375 C 382.55225,155.25997 383.43542,155.4391 383.34375,155.875 C 383.27754,156.18987 382.82962,158.668 382.375,161.375 C 381.12776,168.80167 381.51378,168.09375 378.625,168.09375 C 377.15639,168.09376 374.55632,168.55859 372.3125,169.21875 C 369.25833,170.11741 368.3069,170.25669 367.59375,169.875 C 366.84743,169.47561 366.45919,169.59888 365.15625,170.5625 C 362.53241,172.50296 361.25,173.82305 361.25,174.625 C 361.25001,175.65147 361.49584,175.60041 363.84375,174.09375 C 365.56606,172.98856 367.33026,172.39007 373.40625,170.875 C 374.09804,170.70248 374.375,170.81548 374.375,171.3125 C 374.37501,172.5226 375.29464,172.18547 378.65625,169.78125 C 379.45282,169.21154 380.01512,169.14707 381.15625,169.4375 C 383.72417,170.09112 387.46875,170.34696 387.46875,169.875 C 387.46876,169.30271 385.62924,168.625 384.09375,168.625 C 383.42525,168.62501 382.73955,168.42342 382.59375,168.1875 C 382.28604,167.6896 384.26264,158.62641 385.125,156.5625 C 385.66133,155.27891 385.88277,155.12003 388.09375,154.84375 C 390.61342,154.52898 391.88462,154.63037 399.5,155.71875 C 402.49687,156.14705 406.07025,156.56894 409.75,156.9375 L 409.75,154.65625 C 403.57381,154.05686 400.65658,153.75406 397.1875,153.25 C 392.53795,152.57442 385.86206,152.40073 381.03125,152.8125 C 378.3529,153.04077 378.15625,153.00581 378.15625,152.1875 C 378.15626,150.95653 379.35991,150.30349 385.09375,148.53125 C 389.19537,147.26356 390.33594,147.06372 391.15625,147.4375 C 391.71014,147.68986 393.16334,147.90625 394.40625,147.90625 C 398.68357,147.90626 405.17016,148.77993 407.625,149.6875 C 408.32768,149.94728 409.00697,150.10638 409.75,150.25 L 409.75,147.78125 C 408.96984,147.61277 408.23334,147.38422 407.25,147.0625 C 404.57407,146.18702 402.51877,145.86423 398.53125,145.65625 C 395.6629,145.50665 393.16944,145.29223 393,145.1875 C 392.69335,144.99795 393.29866,138.57964 393.65625,138.21875 C 393.67784,138.19697 393.73707,138.1582 393.84375,138.15625 C 394.59049,138.14263 397.38295,138.61539 402.03125,139.53125 C 403.07408,139.73671 406.3918,139.96834 409.75,140.0625 L 409.75,136.78125 C 407.22227,136.6399 403.87047,136.34732 400.15625,135.875 C 390.72758,134.67603 388.05263,134.40159 383.03125,134.15625 C 375.38851,133.78281 369.6364,133.15316 369,132.625 C 368.14796,131.91789 368.3286,130.70168 369.375,129.96875 C 370.10662,129.45631 370.26645,128.96298 370.1875,127.625 C 370.13241,126.69122 370.34479,125.154 370.625,124.21875 C 371.06882,122.73742 371.65639,122.16645 373.1875,122.15625 C 373.69788,122.15285 374.31822,122.20088 375.0625,122.3125 L 377,122.625 L 376.75,126.6875 C 376.37103,132.22109 376.52431,132.48397 381.34375,132.875 C 383.34956,133.03776 388.64359,133.26558 393.09375,133.375 C 398.62233,133.51097 401.86324,133.77844 403.3125,134.21875 C 404.47907,134.57318 407.2105,135.10509 409.375,135.4375 C 409.50457,135.4574 409.62146,135.4792 409.75,135.5 L 409.75,132.8125 C 406.86879,132.21905 403.44822,131.52446 400.78125,131.03125 C 399.1128,130.72269 399.11039,130.70529 400.28125,130.375 C 401.71122,129.97168 405.5663,130.38953 408.90625,131.28125 C 409.12825,131.34052 409.45041,131.3856 409.75,131.4375 L 409.75,128.875 C 409.32892,128.78267 408.96833,128.70499 408.5,128.59375 C 405.76958,127.94526 403.53212,127.27517 403.53125,127.125 C 403.5304,126.97488 406.29226,126.96781 409.65625,127.09375 C 409.6931,127.09513 409.71353,127.0924 409.75,127.09375 L 409.75,122.71875 C 406.82876,122.67814 404.19393,122.59959 404.09375,122.4375 C 403.98228,122.25712 403.95942,122.13176 404.03125,122.125 C 406.14677,121.9253 408.01482,121.78749 409.75,121.6875 L 409.75,119.15625 z M 298.84375,120.65625 C 298.63415,120.70525 298.30319,120.91106 298.25,120.9375 C 298.13181,120.99626 298.21289,122.80674 298.21875,123.375 C 298.23002,124.46798 299.11093,124.91107 299.1875,123.65625 C 299.22691,123.01056 299.33429,120.99052 299,120.65625 C 298.96811,120.62436 298.91362,120.63992 298.84375,120.65625 z M 382.375,123.84375 C 384.21242,123.8378 386.74851,123.95767 389.625,124.21875 C 392.048,124.43869 397.04712,124.71197 400.75,124.84375 C 404.4529,124.97557 407.56224,125.15596 407.65625,125.25 C 408.3158,125.90952 394.81634,126.30291 386.875,125.84375 C 385.58763,125.76933 384.72774,125.88519 384.625,126.1875 C 384.43782,126.73828 386.68021,127.5356 392.4375,128.90625 C 394.59046,129.41879 396.46659,129.98176 396.59375,130.1875 C 397.07048,130.95886 380.30008,130.33473 379,129.53125 C 378.47097,129.20431 378.63936,125.18749 379.21875,124.25 C 379.3862,123.97906 380.53759,123.8497 382.375,123.84375 z M 322.71875,124.03125 L 324.34375,125.5625 C 325.23538,126.40854 326.62392,127.44315 327.4375,127.875 L 328.9375,128.6875 L 327.5625,128.8125 C 326.01045,128.96335 325.90521,129.15044 326.84375,130.1875 C 327.45229,130.85993 327.37108,131.03516 325.9375,132.46875 C 325.0802,133.32608 323.78947,134.40049 323.0625,134.84375 C 322.33554,135.28706 321.22245,135.65536 320.59375,135.65625 C 319.63316,135.65756 319.40885,135.42992 319.1875,134.25 C 318.87299,132.57349 319.64599,126.67875 320.34375,125.375 C 320.83382,124.45931 320.82725,124.45053 321.21875,125.625 C 321.77094,127.28156 323.07004,127.01343 322.875,125.28125 L 322.71875,124.03125 z M 335.90625,124.65625 C 336.46978,124.65625 336.75,124.9365 336.75,125.5 C 336.75001,126.31451 335.92555,126.64426 335.34375,126.0625 C 334.76198,125.48069 335.09175,124.65625 335.90625,124.65625 z M 298.46875,127.625 C 298.78455,127.62984 299.12888,127.85293 299.28125,128.25 C 299.4122,128.59124 299.38294,128.93895 299.21875,129.03125 C 298.68802,129.3296 297.875,128.83432 297.875,128.21875 C 297.87501,127.82401 298.15296,127.62016 298.46875,127.625 z M 333.46875,128.125 C 334.38264,127.94889 334.77378,129.96461 334.40625,132.90625 C 334.08265,135.4963 333.68817,135.80372 333,134.0625 C 331.881,131.23126 332.11335,128.38615 333.46875,128.125 z M 278.40625,139.71875 C 278.9961,139.68728 281.10901,140.74852 281.1875,141.0625 C 281.2456,141.29495 279.13376,141.06205 277.78125,140.71875 C 276.77925,140.46442 275.42748,141.06131 275.5625,140.65625 C 275.67049,140.33233 277.8164,139.75022 278.40625,139.71875 z M 340.21875,145.59375 C 339.49409,145.5514 338.70279,145.75942 338.5625,146.125 C 338.23325,146.98305 339.69982,156.10063 340.8125,160.03125 C 341.56341,162.68381 346.77336,170.67761 348.8125,172.3125 C 349.60884,172.95098 350.96821,173.57128 351.84375,173.6875 L 353.4375,173.90625 L 353.4375,178.9375 L 353.4375,184 L 353.21875,187.5625 C 351.92226,187.89845 345.63403,191.95615 345,192.53125 C 342.49883,194.79998 331.53231,204.41854 332.09375,204 C 332.67512,204.66255 335.80577,202.66703 336.8125,201.65625 C 336.94375,201.52448 338.35857,200.50394 340.1875,199.21875 C 340.06166,199.41896 339.92212,199.60372 339.78125,199.84375 C 338.24362,202.46377 335.52213,202.55064 333.25,204.3125 C 332.24435,205.09231 329.81959,206.55669 327.84375,207.5625 L 322.59375,208.96875 L 315.46875,210 C 307.65178,209.97826 301.35392,208.16572 297.25,207.15625 C 294.25844,206.42039 282.5463,203.37068 280.8125,203.03125 C 280.66594,201.63354 280.96875,200.27 280.96875,199.34375 C 280.96876,198.55203 281.23701,193.50996 283,192.5 C 284.4864,191.64851 284.09912,179.14813 283.03125,179.3125 C 282.82708,179.34392 282.02993,189.29917 281.875,190.125 C 281.72011,190.95079 281.86909,190.76462 281.5,190.90625 C 281.13093,191.04788 279.15956,190.8193 277.125,190.40625 C 272.20312,189.4071 271.47042,189.50452 264.5625,192.125 C 261.47472,193.29634 253.19203,197.3693 260.28125,192.53125 C 261.16989,191.92481 266.0272,189.75 267.09375,189.75 C 268.52941,189.75001 273.5589,188.36801 274.15625,187.8125 C 274.91384,187.10793 274.46653,185.9375 273.4375,185.9375 C 272.99852,185.93751 270.5633,186.52666 268.03125,187.25 C 263.28253,188.60663 259.66571,190.44178 256.75,192.9375 C 255.82816,193.72661 253.61312,194.95696 251.84375,195.6875 C 247.04111,197.67047 245.07736,199.26239 242.46875,203.25 C 241.62418,204.54113 240.92621,205.14796 240.28125,205.15625 C 239.5592,205.16559 239.34375,205.41068 239.34375,206.21875 C 239.34374,206.96564 239.53968,207.26029 240.0625,207.21875 C 240.72358,207.16634 240.8125,207.63382 240.8125,211.59375 C 240.81249,215.585 240.72064,216.06161 240,216.25 C 239.05427,216.49733 238.69069,218.02879 238.75,221.375 C 238.80511,224.48516 239.19722,225.8526 240.125,226.03125 C 240.7677,226.155 240.86297,225.90418 240.78125,224.34375 C 240.54349,219.80432 241.74075,214.00217 243.71875,210.125 C 244.94227,207.72671 244.88734,206.9175 243.5625,207.25 C 242.56478,207.50039 242.55786,207.45584 243,206.1875 C 243.53548,204.65147 248.36924,199.92962 249.09375,199.46875 C 256.07065,195.03067 249.82281,199.83653 248.625,201.78125 C 246.86282,204.64231 247.48166,206.26811 249.3125,203.59375 C 252.0105,199.65275 255.793,197.02887 260.0625,196.15625 C 261.20959,195.92178 264.32682,195.0318 267,194.1875 C 272.26065,192.52603 275.12115,192.26805 277.78125,193.1875 L 279.46875,193.75 L 279.59375,196.84375 C 279.71478,199.84499 279.70499,199.94588 278.78125,199.8125 C 278.17395,199.72481 277.72402,199.29851 277.5625,198.625 C 277.31616,197.59774 277.21862,197.55952 273.75,197.59375 C 267.38227,197.65656 262.91491,199.83779 258.71875,204.9375 C 255.82261,208.45729 255.69912,208.66449 253.6875,213.375 C 252.85037,215.33533 251.91565,217.1582 251.59375,217.40625 C 251.27182,217.65431 250.94612,218.50209 250.875,219.3125 C 250.76524,220.56306 250.57779,220.80767 249.6875,220.8125 C 248.23399,220.82048 248.08613,222.05206 249.4375,222.9375 C 250.03283,223.32757 253.3256,220.9628 250.53125,224.4375 C 249.74042,225.42087 252.36175,225.91412 254.09375,224.84375 C 255.92971,223.70906 259.95755,223.2127 260.90625,224 C 262.00679,224.91338 258.63782,227.95998 255.40625,229 C 253.3791,229.65245 246.98766,230.54367 242.46875,230.78125 C 242.13237,230.79889 242.53017,231.06165 243.34375,231.375 C 245.24403,232.10675 251.26767,232.14364 254.53125,231.4375 C 257.6947,230.75293 259.45248,229.85747 262.21875,227.5 L 264.375,225.65625 L 269.71875,226.28125 C 273.99149,227.51941 277.57256,227.39993 284.375,227.8125 C 288.76016,228.07846 290.25344,227.64082 295.59375,227.34375 C 295.1287,227.58303 288.23937,231.36225 286.03125,232.90625 C 283.82314,234.45027 268.95783,243.20478 267.96875,243.71875 C 266.01409,244.73455 270.13476,244.78125 271.09375,244.78125 C 271.68795,244.78125 283.49205,236.57299 284.75,235.8125 C 285.09869,235.60174 287.57682,233.21689 290.25,231.78125 C 292.92319,230.34569 295.72879,229.73537 296.46875,229.1875 C 297.77615,228.21938 301.05963,227.77022 300.75,228.59375 C 300.67253,228.79986 299.76478,229.61396 298.71875,230.40625 C 296.74901,231.89809 295.93867,233.75704 295.65625,237.5 C 295.55963,238.78075 295.64313,238.95943 296.375,238.8125 C 298.58521,238.36883 306.26374,238.75855 311.59375,239.59375 C 318.67237,240.70302 323.26704,241.12812 334.21875,241.6875 C 342.86898,242.12926 348.05421,242.99204 353.1875,244.84375 C 356.0347,245.87082 358.84571,246.3863 366.5,247.25 C 370.14386,247.66117 373.06195,247.72454 380.5,247.5 C 382.0243,247.45396 382.19687,247.53455 382.3125,248.53125 C 382.43741,249.60775 382.37086,250.68286 379.46875,250.96875 C 352.68967,250.75976 325.93978,245.95955 299.34375,242.96875 C 296.54186,242.78261 291.08834,243.8781 294.625,239 C 291.999,241.93221 291.28123,242.08856 291.3125,244.53125 C 291.3472,247.2414 291.07609,247.59849 291.78125,247.96875 C 292.21582,248.19692 297.13994,248.50304 302.71875,248.65625 C 308.34985,248.81091 315.69931,249.30535 319.21875,249.75 C 322.70551,250.19056 327.73306,250.76919 330.40625,251.03125 C 333.07944,251.29339 335.9275,251.66286 336.75,251.875 C 337.57253,252.08715 339.62739,252.26578 341.3125,252.25 C 342.99762,252.23423 344.62447,252.39724 344.90625,252.625 C 345.75762,253.31304 350.15503,253.64946 360.71875,253.78125 C 368.81463,253.88222 371.17285,254.04735 372.875,254.625 C 374.03726,255.01943 376.23907,255.47728 377.75,255.65625 C 379.26094,255.83523 380.76993,255.99824 381.125,256.03125 C 381.98486,256.1112 383.65625,254.9154 383.65625,254.21875 C 383.65626,253.80825 382.71093,253.66156 380.03125,253.625 C 375.19804,253.55916 374.19142,252.97438 377.8125,252.34375 C 379.31845,252.08154 381.46212,251.875 382.5625,251.875 C 383.66289,251.87501 384.92538,251.67815 385.375,251.4375 C 386.3464,250.91767 386.48019,249.75 385.5625,249.75 C 384.6355,249.75001 383.97741,247.7293 384.25,245.6875 C 384.57668,243.24075 383.62907,242.44704 382.21875,243.96875 C 380.95588,245.33146 377.96388,245.75816 372.0625,245.40625 C 362.95487,244.86307 359.08514,244.26747 353.90625,242.625 C 345.72805,240.03116 341.30876,239.399 326.34375,238.78125 C 320.73576,238.54972 315.64258,238.16993 315.03125,237.9375 C 314.41992,237.70508 312.55898,237.41345 310.875,237.28125 C 309.19102,237.14907 306.76305,236.8468 305.5,236.625 C 304.23695,236.40329 302.18058,236.25 300.9375,236.25 C 298.38269,236.25001 297.89995,235.68248 298.6875,233.78125 C 299.21839,232.49955 302.3201,230.04665 305.90625,228.0625 C 308.00237,226.90285 308.66019,226.75356 312.75,226.59375 C 318.27333,226.37783 323.56487,223.85365 327.5625,226.0625 L 337.21875,230.3125 C 337.99668,229.58309 338.859,229.42504 343.15625,229.28125 C 345.91176,229.18907 348.81142,228.95917 349.625,228.75 C 351.59314,228.24408 357.50831,226.37493 358.1875,225.8125 C 359.19565,224.9777 359.66768,228.16953 358.6875,229.78125 C 356.99288,232.56777 355.24537,234.53125 354.46875,234.53125 C 354.05648,234.53126 353.6052,234.71674 353.46875,234.9375 C 353.12506,235.49366 354.61029,236.25 356.09375,236.25 C 357.13475,236.25001 357.44555,235.95582 358.125,234.4375 C 358.5671,233.44958 359.52538,231.96979 360.25,231.15625 C 360.97464,230.34271 361.73093,229.21893 361.90625,228.65625 C 362.44298,226.93368 364.88145,223.48178 367.625,220.59375 C 370.60983,217.4518 372.6875,214.62277 372.6875,213.65625 C 372.68751,212.34629 371.08348,212.98767 369.90625,214.78125 C 369.25786,215.76918 367.68235,217.90408 366.375,219.53125 C 365.06766,221.15843 363.35021,223.3959 362.5625,224.5 C 361.04763,226.62344 360.82786,226.76536 360.15625,226.09375 C 359.87494,225.81246 358.06674,223.48075 355.15625,224.90625 L 350.78125,227.03125 L 348.75,226.15625 C 347.63466,225.67641 346.13429,225.3125 345.40625,225.3125 C 344.29343,225.3125 344.1273,225.44301 344.34375,226.125 C 344.67602,227.17186 342.56584,227.60811 338.09375,227.65625 C 333.64204,227.13844 331.54225,226.049 327.875,223.34375 C 323.12334,222.51458 308.02399,224.96956 302.625,225.1875 C 299.42094,225.31684 279.01073,224.99781 274.875,224.34375 C 270.29338,223.61924 261.60639,221.74591 260.875,220.5625 C 260.74062,220.34505 257.20181,218.98533 256.6875,218.875 C 255.92126,218.71063 253.41025,220.17088 254.46875,218.1875 C 254.63678,217.87263 255.2527,215.54887 256.5,213.0625 C 259.29491,207.49118 262.05549,204.53029 266.5,202.3125 C 270.63776,200.24778 271.08698,200.79841 273.03125,202 C 278.52285,205.03068 284.24103,206.3255 290.28125,207.625 C 297.1015,209.10274 299.27054,209.58551 304.21875,210.9375 C 307.44147,211.81812 308.52332,211.92731 314.96875,211.8125 C 323.01486,211.6692 327.4596,211.52576 329.625,209.65625 C 330.38149,209.00316 332.03159,207.92201 333.28125,207.25 C 334.5309,206.57791 335.87368,205.55502 336.25,204.96875 C 336.62632,204.38232 338.7276,203.08558 339.9375,201.96875 C 341.14741,200.8519 341.73941,200.64595 341.875,200.21875 C 342.26551,198.98833 342.44347,199.37876 345.1875,199.59375 C 346.94207,199.73122 347.86558,199.30533 349.4375,198.78125 C 350.71151,198.35651 350.62212,198.6473 352.1875,198.4375 C 353.17446,198.30521 353.44957,197.04337 353.5625,197.15625 C 353.89919,197.49296 354.11948,198.32146 353.71875,199.71875 C 353.48768,200.5245 353.48847,201.31389 353.75,201.78125 C 354.28837,202.74318 353.55461,203.24106 351.625,203.25 C 350.61578,203.25459 349.83119,202.89372 348.90625,201.96875 C 347.44964,200.51218 347.65211,202.0703 347.09375,203.375 C 346.92963,203.75849 345.98344,203.10344 344.375,201.75 C 342.06176,199.80354 342.19044,201.61847 344.5625,204.4375 C 345.69204,205.77992 345.76758,205.81797 349.375,205.8125 C 352.54183,205.80776 358.56748,204.87775 361.75,203.90625 C 363.28716,203.43705 364.17753,202.4273 364.46875,200.875 C 364.82532,198.97433 365.35402,199.08433 366.28125,201.25 C 367.83495,204.87872 367.90887,204.64281 364.5625,206.90625 C 362.88337,208.042 360.82332,209.55263 359.96875,210.25 C 359.11419,210.94738 358.06066,211.73351 357.625,212 C 356.97398,212.39828 356.92573,212.59466 357.375,213.0625 C 357.83218,213.53864 358.14783,213.50481 359.28125,212.84375 C 365.06915,209.46784 365.89698,209.08656 366.1875,209.84375 C 366.38759,210.36513 366.0214,211.00668 364.9375,212 C 363.45042,213.36279 360.07066,217.48507 358.53125,219.84375 L 357.78125,221.03125 L 359.09375,220.75 C 360.21605,220.52555 360.40625,220.62191 360.40625,221.34375 C 360.40626,221.80926 360.1099,222.42006 359.75,222.71875 C 359.02768,223.31823 359.09538,224.8788 359.84375,225.125 C 360.10559,225.21107 360.69126,224.67149 361.15625,223.90625 C 363.52852,220.00212 367.45815,213.35459 368.0625,212.25 C 369.10804,210.33912 371.3853,210.22 377.84375,211.75 C 380.13298,212.29232 380.13528,213.08611 377.84375,212.90625 C 376.42056,212.79459 376.19419,212.92563 374.71875,215.09375 C 373.84872,216.37224 372.73892,218.47152 372.21875,219.75 C 371.69859,221.02849 370.92523,222.57048 370.5,223.1875 C 370.07478,223.80453 369.71875,224.50685 369.71875,224.71875 C 369.71876,224.93058 368.96788,225.52235 368.0625,226.03125 C 367.15714,226.54007 366.29691,227.22719 366.15625,227.59375 C 365.76174,228.62186 365.87392,230.24085 366.34375,230.53125 C 367.13979,231.02317 366.75989,231.63218 365.28125,232.25 C 364.46768,232.59 363.8125,233.03343 363.8125,233.25 C 363.81251,233.46674 363.27832,233.91547 362.65625,234.21875 C 361.31402,234.87305 360.95073,235.71985 361.84375,236.0625 C 363.33136,236.6334 369.30646,230.94124 370.78125,227.5625 C 372.34258,223.98556 375.16793,219.94225 378.375,216.6875 C 380.34726,214.68596 381.04091,213.70131 380.84375,213.1875 C 380.61258,212.58505 380.78145,212.50242 381.8125,212.71875 C 383.25931,213.02244 388.70875,213.8005 389.46875,213.8125 C 389.75932,213.81718 390,214.01757 390,214.25 C 390.00001,214.48244 389.45014,214.6875 388.78125,214.6875 C 388.11238,214.68751 387.34782,214.96865 387.0625,215.3125 C 386.671,215.78421 386.3402,215.83266 385.71875,215.5 C 384.59675,214.89957 381.56185,216.68553 380.09375,218.8125 C 376.51121,224.00302 372.54746,230.22104 372,231.53125 C 371.65063,232.36751 370.7101,233.58741 369.90625,234.25 C 369.10242,234.9126 368.4375,235.62823 368.4375,235.84375 C 368.43751,236.39976 369.57324,236.33658 370.5625,235.71875 C 371.21138,235.31356 371.57118,235.30266 372.1875,235.6875 C 372.89926,236.132 373.16826,235.92137 374.53125,233.625 C 375.37115,232.20998 376.0625,230.79628 376.0625,230.5 C 376.06251,229.63131 380.23122,221.24292 381.15625,220.25 C 381.94394,219.4045 386.39049,216.375 386.84375,216.375 C 387.34645,216.37501 386.93208,217.37265 385.53125,219.5625 C 384.6989,220.8637 383.65574,222.97988 383.21875,224.25 C 382.22775,227.13047 381.15393,228.50108 378.75,230 C 377.71447,230.64569 376.96758,231.35832 377.09375,231.5625 C 377.35798,231.99001 378.90861,231.67745 379.25,231.125 C 379.56928,230.60845 381.125,230.62956 381.125,231.15625 C 381.12501,231.39304 380.64316,232.96304 380.0625,234.625 C 379.48184,236.28704 379.09911,237.75536 379.21875,237.875 C 379.67797,238.33415 380.40117,237.04867 381.125,234.46875 C 382.09028,231.0282 385.29866,223.44351 386.75,221.15625 C 387.36716,220.18362 388.57252,218.84204 389.4375,218.1875 C 390.3025,217.53305 391.53299,216.44706 392.1875,215.78125 C 393.30248,214.64704 393.55021,214.60409 395.71875,214.875 C 396.99173,215.03409 398.10121,215.30975 398.21875,215.5 C 398.40331,215.79853 395.64285,220.63249 392.03125,226.3125 C 391.43798,227.24561 390.45098,229.03731 389.8125,230.3125 C 389.17403,231.58778 388.29148,233.03506 387.875,233.5 C 386.41187,235.13322 384.45041,239.46329 384.59375,240.71875 C 384.72317,241.85225 384.8923,241.67868 387.09375,238.34375 C 388.39806,236.36798 389.91344,233.95265 390.46875,232.96875 C 391.42136,231.28088 392.39821,230.46073 392.875,230.9375 C 392.99198,231.05449 392.58388,231.91419 391.96875,232.84375 C 391.35361,233.77332 390.84375,234.68765 390.84375,234.875 C 390.84376,235.06227 389.88101,236.59942 388.71875,238.28125 C 387.55651,239.96318 386.625,241.51492 386.625,241.75 C 386.62501,241.98518 386.34867,242.30369 386,242.4375 C 385.34311,242.6895 385.0822,243.84375 385.6875,243.84375 C 386.09833,243.84376 387.875,241.50849 387.875,240.96875 C 387.87501,240.76032 388.56143,239.72179 389.375,238.65625 C 390.18859,237.59072 390.84375,236.51569 390.84375,236.28125 C 390.84376,236.0469 391.32513,235.34576 391.90625,234.71875 C 392.48739,234.09167 392.96875,233.30801 392.96875,232.96875 C 392.96876,232.62941 393.38324,231.78921 393.90625,231.125 C 394.42928,230.46081 395.53017,228.98077 396.34375,227.8125 C 397.97238,225.47371 398.40866,225.25283 399.1875,226.5 C 399.63539,227.21718 399.43644,227.93909 397.84375,231.53125 C 396.8198,233.84075 395.87927,236.15049 395.71875,236.65625 C 395.55824,237.16202 394.65715,238.64251 393.75,239.9375 C 392.84286,241.2325 392.125,242.53048 392.125,242.8125 C 392.12501,243.64634 390.01902,247.93958 389.34375,248.5 C 389.00155,248.78397 388.71875,249.25663 388.71875,249.53125 C 388.71876,249.80588 388.06358,250.64899 387.25,251.4375 C 385.73648,252.90455 385.29582,254.40625 386.375,254.40625 C 387.02238,254.40626 388.71875,252.48425 388.71875,251.75 C 388.71876,251.50575 389.07978,250.88608 389.5,250.40625 C 390.68969,249.04766 394.65625,242.31901 394.65625,241.65625 C 394.65626,241.32988 394.95668,240.61512 395.34375,240.0625 C 396.34259,238.63645 398.02681,235.51101 400.75,229.96875 C 402.41773,226.57456 403.6607,224.64012 405,223.375 C 406.04235,222.39046 406.90625,221.36821 406.90625,221.125 C 406.90626,220.65119 408.66459,219.04088 409.75,218.375 L 409.75,215.5625 C 409.04365,216.20605 408.1992,217.05696 407.0625,218.28125 C 405.0122,220.48946 403.16979,222.28125 402.96875,222.28125 C 402.76772,222.28126 402.11191,221.72854 401.5,221.03125 C 400.88809,220.33388 400.14066,219.75 399.84375,219.75 C 398.99073,219.75001 399.21242,218.72294 400.28125,217.71875 C 401.60234,216.4777 401.84375,216.54641 401.84375,218.21875 C 401.84376,219.81453 402.6476,220.74283 403.6875,220.34375 C 404.4705,220.0433 404.5154,219.80153 403.96875,218.9375 C 403.46991,218.149 404.06786,217.01331 405.9375,215.25 C 406.73834,214.49475 407.27066,213.67315 407.125,213.4375 C 406.82021,212.94429 408.195,210.11551 409.75,208 L 409.75,203.6875 C 408.46632,204.74144 407.49192,205.99079 406.6875,207.5625 C 405.05419,210.75381 403.47602,212.04217 400.8125,212.375 C 399.52025,212.53643 397.40953,212.45664 396.03125,212.1875 C 394.68228,211.92416 391.80203,211.44921 389.59375,211.125 C 387.38548,210.80071 383.28942,210.02279 380.5,209.40625 C 377.71061,208.78972 374.57727,208.16039 373.53125,208.03125 C 371.20346,207.74384 370.125,206.91093 370.125,205.3125 C 370.12501,204.41459 370.39038,203.97862 371.15625,203.6875 C 372.36717,203.22715 373.36477,201.87539 373.75,200.09375 C 374.00744,198.90314 373.88577,198.97807 372.03125,201.0625 C 369.94892,203.40307 369.28125,203.54387 369.28125,201.65625 C 369.28126,201.02434 369.00159,200.08676 368.65625,199.59375 C 368.10084,198.80076 368.10083,198.68185 368.65625,198.46875 C 369.42784,198.17266 369.48062,197.20011 368.75,196.59375 C 367.95931,195.93752 367.00398,196.65848 367.28125,197.71875 C 367.60601,198.96064 367.31243,198.86739 365.21875,196.9375 C 364.10398,195.90994 362.98268,195.25 362.34375,195.25 C 361.15105,195.25001 360.7449,194.61126 360.03125,191.6875 C 359.60935,189.959 359.62867,189.52048 360.15625,188.9375 C 360.84211,188.17967 363.67905,187.23977 365.6875,187.09375 C 367.34483,186.97327 367.42112,188.09268 365.78125,188.53125 C 364.33413,188.91826 363.375,189.66076 363.375,190.40625 C 363.37501,190.83489 364.17103,190.92681 366.84375,190.78125 C 372.09588,190.49522 373.78868,188.89455 370.65625,187.21875 L 369.09375,186.375 L 373.71875,186.59375 C 382.10414,186.97806 383.96878,187.18634 389.65625,188.46875 C 392.74822,189.16589 395.31337,189.75 395.375,189.75 C 395.43663,189.75001 395.5,189.95162 395.5,190.1875 C 395.50001,190.6857 392.99745,192.27888 392.21875,192.28125 C 391.9282,192.2821 391.6875,191.9024 391.6875,191.4375 C 391.68751,190.38848 391.31218,190.40121 387.90625,191.46875 C 385.1966,192.318 381.04348,195.07984 380.25,196.5625 C 379.64469,197.69356 379.73167,198.50029 380.375,197.71875 C 380.66557,197.36577 381.94895,196.3576 383.21875,195.46875 C 385.06756,194.17468 386.06001,193.77948 388.15625,193.5625 L 390.78125,193.3125 L 387.25,197.125 C 385.31545,199.22687 382.67302,201.97423 381.375,203.21875 C 380.07699,204.46335 379,205.73797 379,206.0625 C 379.00001,206.38704 379.09853,206.65625 379.1875,206.65625 C 379.27648,206.65626 381.92876,204.08606 385.09375,200.9375 C 390.31838,195.73996 391.1689,195.03419 394.4375,193.53125 C 396.41758,192.62077 398.14405,191.60751 398.28125,191.25 C 398.48371,190.72238 399.38368,190.59375 402.96875,190.59375 C 404.83478,190.59375 407.1109,190.7399 409.75,190.96875 L 409.75,188.15625 C 409.22365,188.1114 408.67582,188.06618 408.1875,188.03125 C 404.81698,187.79018 401.84716,187.52558 401.59375,187.4375 C 401.34033,187.34939 401.09652,186.44698 401.0625,185.4375 C 401.0285,184.42804 400.93623,183.24615 400.875,182.78125 C 400.77063,181.98894 401.02829,181.91624 404.59375,181.9375 C 405.93224,181.94546 407.74585,182.01935 409.75,182.125 L 409.75,180.3125 C 408.05189,180.11604 405.49499,179.91661 403.34375,179.84375 C 400.70588,179.75441 398.1823,179.48135 397.75,179.25 C 396.64427,178.65823 395.30547,177.10076 395.625,176.78125 C 395.77206,176.63421 398.31101,176.75861 401.28125,177.03125 C 403.72794,177.25584 407.07044,177.54677 409.75,177.78125 L 409.75,176.0625 C 407.42393,175.83714 404.75545,175.54782 401.21875,175.125 C 398.4363,174.79235 395.34854,174.53125 394.375,174.53125 C 392.90478,174.53126 392.22049,174.2047 390.28125,172.625 C 388.99715,171.57898 387.85066,170.71875 387.71875,170.71875 C 387.08868,170.71876 387.5683,172.44546 388.3125,172.84375 C 389.40027,173.42589 389.37835,174.11937 388.28125,174.40625 C 387.49362,174.61221 387.49168,174.70969 388.09375,175.375 C 388.70485,176.05025 392.84983,178.91649 395.65625,180.625 C 397.63742,181.83109 396.45044,182.28071 393.21875,181.53125 C 389.93664,180.77008 388.71875,180.69649 388.71875,181.28125 C 388.71876,181.77955 390.71148,182.66238 395.21875,184.125 C 398.34828,185.14052 399.15341,185.78889 398.78125,187 C 398.59484,187.60666 393.42201,187.2405 391.6875,186.5 C 387.44961,184.69074 381.78989,183.88526 372.46875,183.78125 C 367.43532,183.72508 366.71031,183.80089 364,184.84375 C 359.49823,186.57594 359.71183,186.58684 359.375,185.25 C 359.20911,184.59154 359.11207,181.00045 359.15625,177.28125 C 359.26368,168.23635 359.25894,167.91519 358.53125,167.1875 C 358.03179,166.68803 357.5696,166.63829 356.3125,166.96875 C 354.38644,167.47508 353.21875,168.73306 353.21875,170.3125 C 353.21876,173.46981 350.48473,171.59569 346.71875,165.875 C 342.69519,159.76303 341.26186,155.20844 341.46875,149.1875 C 341.52456,147.56373 341.44548,146.10174 341.28125,145.9375 C 341.08031,145.73656 340.65355,145.61916 340.21875,145.59375 z M 320.28125,147.28125 C 319.47943,147.28126 319.18501,149.41863 319.875,150.25 C 320.7651,151.32253 321.16465,150.9063 321.03125,149.0625 C 320.9403,147.80542 320.72493,147.28125 320.28125,147.28125 z M 289.21875,153.8125 C 288.61887,153.81251 286.55402,156.7535 285.1875,159.53125 C 284.84444,160.2286 284.03939,161.66249 283.40625,162.71875 C 282.08793,164.91816 280.96462,168.84724 280.9375,171.34375 C 280.92731,172.28282 280.68317,173.76176 280.375,174.625 C 280.06683,175.48824 279.90174,176.30796 280.03125,176.4375 C 280.16078,176.567 278.90241,182.79813 280.5,182.53125 C 281.38731,182.38302 280.44515,176.46165 281.90625,175.8125 C 282.57959,175.51335 283.0625,174.8948 283.0625,174.4375 C 283.06251,173.35328 285.35655,170.06819 287.59375,167.9375 C 289.41977,166.1984 289.8593,165.04719 288.875,164.65625 C 288.53837,164.52253 288.84348,164.05995 289.71875,163.34375 C 291.19263,162.13776 291.48665,161.1406 290.46875,160.75 C 290.08232,160.60174 288.8666,161.34118 287.3125,162.6875 C 285.9163,163.89704 283.34375,168.69345 283.34375,168.53125 C 283.34376,167.88089 286.34181,161.05966 288.28125,158.125 C 290.26628,155.12136 290.53443,153.8125 289.21875,153.8125 z M 330.34375,153.8125 C 329.91535,153.83573 329.45855,154.26231 329.28125,154.96875 C 328.91308,156.43565 329.86751,164.20654 330.84375,167.78125 C 331.84337,171.44151 335.402,181.31715 335.96875,182 C 336.6944,182.87436 337.28732,182.15191 337,180.71875 C 336.85409,179.99081 336.71552,178.97325 336.71875,178.46875 C 336.72615,177.31191 335.66582,174.77358 334.5625,173.28125 C 332.86479,170.98498 331.58997,165.45168 331.4375,159.84375 C 331.3599,156.98939 331.17069,154.44435 331.03125,154.21875 C 330.8456,153.91834 330.60079,153.79857 330.34375,153.8125 z M 399.03125,162.53125 C 396.88773,162.54591 395.5,162.57678 395.5,162.65625 C 395.50001,162.95939 405.56676,163.72001 409.75,163.8125 L 409.75,162.59375 C 405.87415,162.53836 401.82582,162.51214 399.03125,162.53125 z M 402.0625,167.90625 C 401.89146,167.8876 401.73135,167.98416 401.625,168.15625 C 401.30331,168.67678 402.57673,168.98293 405.84375,169.15625 C 407.33712,169.23548 408.58678,169.30703 409.75,169.34375 L 409.75,168.21875 C 409.33392,168.22185 409.00567,168.21941 408.53125,168.21875 C 405.29211,168.21427 402.45264,168.09398 402.25,167.96875 C 402.19934,167.93745 402.11951,167.91247 402.0625,167.90625 z M 356.15625,169.46875 C 356.52438,169.39215 357.01981,169.66908 357.21875,170.1875 C 357.37009,170.58191 357.48529,175.19498 357.46875,180.4375 C 357.45221,185.68007 357.61587,190.72645 357.84375,191.65625 C 358.33046,193.64206 358.54228,201.29352 358.125,201.96875 C 357.82841,202.44859 356.09982,202.59979 355.6875,202.1875 C 355.55965,202.05966 355.61611,201.2663 355.8125,200.40625 C 356.52744,197.2754 356.73135,190.82036 356.21875,187.78125 C 355.82909,185.47112 355.48582,173.47027 355.71875,170 C 355.73845,169.70658 355.93538,169.51471 356.15625,169.46875 z M 378.84375,187.84375 C 377.97419,187.88793 376.72254,188.22821 374.96875,188.90625 C 372.25712,189.95457 371.23714,190.58534 370.59375,191.59375 C 370.13192,192.31761 369.41565,193.35199 369.03125,193.875 C 367.9363,195.36481 369.03933,195.02419 372.1875,192.9375 C 374.02383,191.72035 375.87578,190.91481 377.53125,190.5625 C 380.15452,190.00429 380.76786,189.56732 380.40625,188.625 C 380.18459,188.04735 379.71332,187.79958 378.84375,187.84375 z M 382.8125,189.5625 C 381.31327,189.65138 376.46875,193.17051 376.46875,194.28125 C 376.46876,194.71099 376.87362,194.61945 378.0625,193.96875 C 378.9342,193.49169 380.55211,192.73266 381.65625,192.28125 C 383.68921,191.45013 384.38913,190.10286 383.0625,189.59375 C 382.99465,189.56772 382.91245,189.55658 382.8125,189.5625 z M 353.8125,189.59375 L 353.90625,193.5 L 353.6875,196.3125 C 352.65719,196.37463 349.33221,197.42439 347.9375,197.65625 C 346.47703,197.899 344.84953,197.82791 343.96875,197.625 C 343.49306,197.5154 343.09604,197.45725 342.75,197.4375 C 346.8884,194.53982 351.87994,191.05198 353.8125,189.59375 z M 405.25,192.03125 C 404.9553,192.03534 404.5073,192.18165 403.90625,192.4375 C 403.12201,192.77135 401.3322,193.37818 399.9375,193.78125 C 397.47205,194.49382 394.53397,196.17243 393.40625,197.53125 C 392.51483,198.60539 393.69581,198.36379 395.09375,197.1875 C 395.85568,196.54636 397.49645,195.93815 399.59375,195.5 C 403.25848,194.73439 404.7051,194.10344 405.375,193.03125 C 405.7927,192.36272 405.74117,192.02444 405.25,192.03125 z M 408.59375,193.125 C 407.59537,193.12501 406.287,193.90154 402.5,196.71875 C 397.49859,200.4394 395.0625,202.47069 395.0625,202.90625 C 395.06251,203.43931 395.51471,203.14765 398.65625,200.75 C 401.31223,198.72299 401.55074,198.5888 406.40625,195.875 C 409.37995,194.21298 410.23926,193.125 408.59375,193.125 z M 409.75,197.125 C 409.24911,197.44409 407.91263,198.19053 406.28125,199.0625 C 402.86805,200.88688 398.93527,203.69961 398.3125,204.78125 C 397.7409,205.77402 398.43518,205.45195 400.5,203.71875 C 402.33699,202.17679 406.18314,200.13853 409.75,198.71875 L 409.75,197.125 z M 361.46875,197.46875 C 361.91756,197.42875 362.37592,198.21116 362.40625,199.28125 C 362.43331,200.23561 362.23861,200.71875 361.875,200.71875 C 361.26592,200.71876 360.61749,198.48195 361.03125,197.8125 C 361.16008,197.60405 361.31915,197.48208 361.46875,197.46875 z M 392.3125,198.75 C 391.90236,198.91907 391.01987,200.01594 390.40625,201.21875 C 389.44502,203.10291 388.09607,205.09847 386.21875,207.46875 C 385.46503,208.42046 385.01237,209.1875 385.21875,209.1875 C 386.04152,209.18751 390.4375,203.63957 390.4375,202.59375 C 390.43751,202.36084 390.88762,201.50637 391.46875,200.71875 C 392.04988,199.93105 392.53125,199.12201 392.53125,198.90625 C 392.53126,198.72512 392.44922,198.69365 392.3125,198.75 z M 379.28125,200.9375 C 379.11388,200.9217 378.77118,201.25338 378.125,202 C 377.4209,202.81363 376.66193,203.81202 376.4375,204.21875 C 376.13105,204.77427 376.18511,204.96875 376.65625,204.96875 C 377.47112,204.96876 379.42845,202.35333 379.40625,201.3125 C 379.40106,201.06859 379.38168,200.94698 379.28125,200.9375 z M 394.4375,203.6875 C 393.87312,203.68751 388.3125,209.30523 388.3125,209.875 C 388.31251,210.84876 389.58515,210.49739 390,209.40625 C 390.21775,208.83351 391.11774,207.66138 392,206.78125 C 393.9665,204.81949 394.84058,203.6875 394.4375,203.6875 z M 395.8125,225.34375 C 395.9727,225.36728 395.66697,226.01461 394.875,227.65625 C 393.77137,229.94409 392.96875,230.81286 392.96875,229.6875 C 392.96876,228.728 393.98334,226.85457 395.03125,225.90625 C 395.45396,225.52371 395.71638,225.32964 395.8125,225.34375 z M 374.09375,230.34375 C 374.17843,230.34132 374.25732,230.3462 374.34375,230.375 C 374.67356,230.48498 374.62493,230.78832 374.21875,231.34375 C 373.78504,231.93695 373.55275,232.0137 373.3125,231.625 C 372.98224,231.09061 373.50106,230.36079 374.09375,230.34375 z M 296.34375,244.84375 C 301.029,244.94686 310.14487,245.87385 312.875,246.6875 C 313.72029,246.9395 313.72028,246.91959 312.875,247.25 C 311.72679,247.69877 306.41432,247.62897 299.6875,247.0625 C 294.09372,246.59153 292.50498,246.05758 293.53125,245.03125 C 293.71067,244.85187 294.782,244.80938 296.34375,244.84375 z M 339.1875,249.40625 C 340.73293,249.37625 342.89637,249.60816 345.84375,250.15625 C 347.00602,250.37242 349.43522,250.5799 351.25,250.59375 C 354.54734,250.61896 358.14866,251.24843 358.90625,251.9375 C 359.75088,252.70565 343.27631,251.91825 341.25,251.09375 C 340.59564,250.82744 339.33844,250.59375 338.4375,250.59375 C 336.28491,250.59376 335.8931,249.86591 337.84375,249.5 C 338.22848,249.42783 338.67236,249.41625 339.1875,249.40625 z"
           style="fill:#000000;fill-opacity:1" />
      </g>
    </g>
  </g>
</svg>
