<svg fill-rule="evenodd" height="538.76776" viewBox="0 0 1024 538.76776" width="1024" xmlns="http://www.w3.org/2000/svg"><path d="m1710 899.999h-1709.9988189v-899.999h1709.9988189z" fill="#bf0a30" transform="matrix(.59883081 0 0 .59863153 -.000707 0)"/><g fill="#fff" transform="matrix(.59883105 0 0 .59863153 .340202 .000262)"><path d="m1709.43 761.538v69.231h-1709.99811v-69.231z"/><path d="m1709.43 69.2315v69.2305h-1709.99811v-69.2305z"/><path d="m1709.43 207.692v69.232h-1709.99811v-69.232z"/><path d="m1709.43 346.154v69.23h-1709.99811v-69.23z"/><path d="m1709.43 484.616v69.23h-1709.99811v-69.23z"/><path d="m1709.43 623.076v69.232h-1709.99811v-69.232z"/></g><path d="m.284646.0011811v484.6148189h683.773354v-484.6148189z" fill="#002868" transform="matrix(.59937811 0 0 .59863207 -.170611 0)"/><g fill="#fff" transform="matrix(.59863153 0 0 .59863153 .340089 0)"><path d="m595.137 58.7717h20.27l6.265-19.278 6.263 19.278h20.271l-16.398 11.9149 6.262 19.2827-16.398-11.9173-16.397 11.9173 6.262-19.2827z"/><path d="m515.281 58.7717h20.27l6.263-19.278 6.265 19.278h20.27l-16.397 11.9149 6.262 19.2827-16.4-11.9173-16.398 11.9173 6.262-19.2827z"/><path d="m435.424 58.7717h20.27l6.263-19.278 6.265 19.278h20.27l-16.399 11.9149 6.262 19.2827-16.398-11.9173-16.398 11.9173 6.262-19.2827z"/><path d="m355.565 58.7717h20.27l6.266-19.278 6.263 19.278h20.27l-16.398 11.9149 6.262 19.2827-16.397-11.9173-16.4 11.9173 6.262-19.2827z"/><path d="m275.708 58.7717h20.27l6.264-19.278 6.265 19.278h20.271l-16.399 11.9149 6.262 19.2827-16.399-11.9173-16.398 11.9173 6.263-19.2827z"/><path d="m195.85 58.7717h20.27l6.265-19.278 6.263 19.278h20.271l-16.398 11.9149 6.262 19.2827-16.398-11.9173-16.397 11.9173 6.262-19.2827z"/><path d="m115.994 58.7717h20.27l6.264-19.278 6.264 19.278h20.27l-16.397 11.9149 6.262 19.2827-16.399-11.9173-16.399 11.9173 6.262-19.2827z"/><path d="m36.137 58.7717h20.2701l6.2634-19.278 6.2645 19.278h20.2701l-16.3996 11.9149 6.2622 19.2827-16.3972-11.9173-16.3985 11.9173 6.2623-19.2827z"/><path d="m515.281 147.56h20.27l6.263-19.278 6.265 19.278h20.27l-16.397 11.914 6.262 19.283-16.4-11.918-16.398 11.918 6.262-19.283z"/><path d="m435.424 147.56h20.27l6.263-19.278 6.265 19.278h20.27l-16.399 11.914 6.262 19.283-16.398-11.918-16.398 11.918 6.262-19.283z"/><path d="m355.565 147.56h20.27l6.266-19.278 6.263 19.278h20.27l-16.398 11.914 6.262 19.283-16.397-11.918-16.4 11.918 6.262-19.283z"/><path d="m275.708 147.56h20.27l6.264-19.278 6.265 19.278h20.271l-16.399 11.914 6.262 19.283-16.399-11.918-16.398 11.918 6.263-19.283z"/><path d="m195.85 147.56h20.27l6.265-19.278 6.263 19.278h20.271l-16.398 11.914 6.262 19.283-16.398-11.918-16.397 11.918 6.262-19.283z"/><path d="m115.994 147.56h20.27l6.264-19.278 6.264 19.278h20.27l-16.397 11.914 6.262 19.283-16.399-11.918-16.399 11.918 6.262-19.283z"/><path d="m595.137 236.349h20.27l6.265-19.278 6.263 19.278h20.271l-16.398 11.915 6.262 19.282-16.398-11.918-16.397 11.918 6.262-19.282z"/><path d="m515.281 236.349h20.27l6.263-19.278 6.265 19.278h20.27l-16.397 11.915 6.262 19.282-16.4-11.918-16.398 11.918 6.262-19.282z"/><path d="m435.424 236.349h20.27l6.263-19.278 6.265 19.278h20.27l-16.399 11.915 6.262 19.282-16.398-11.918-16.398 11.918 6.262-19.282z"/><path d="m355.565 236.349h20.27l6.266-19.278 6.263 19.278h20.27l-16.398 11.915 6.262 19.282-16.397-11.918-16.4 11.918 6.262-19.282z"/><path d="m275.708 236.349h20.27l6.264-19.278 6.265 19.278h20.271l-16.399 11.915 6.262 19.282-16.399-11.918-16.398 11.918 6.263-19.282z"/><path d="m195.85 236.349h20.27l6.265-19.278 6.263 19.278h20.271l-16.398 11.915 6.262 19.282-16.398-11.918-16.397 11.918 6.262-19.282z"/><path d="m115.994 236.349h20.27l6.264-19.278 6.264 19.278h20.27l-16.397 11.915 6.262 19.282-16.399-11.918-16.399 11.918 6.262-19.282z"/><path d="m36.137 236.349h20.2701l6.2634-19.278 6.2645 19.278h20.2701l-16.3996 11.915 6.2622 19.282-16.3972-11.918-16.3985 11.918 6.2623-19.282z"/><path d="m515.281 325.142h20.27l6.263-19.283 6.265 19.283h20.27l-16.397 11.909 6.262 19.284-16.4-11.917-16.398 11.917 6.262-19.284z"/><path d="m435.424 325.142h20.27l6.263-19.283 6.265 19.283h20.27l-16.399 11.909 6.262 19.284-16.398-11.917-16.398 11.917 6.262-19.284z"/><path d="m355.565 325.142h20.27l6.266-19.283 6.263 19.283h20.27l-16.398 11.909 6.262 19.284-16.397-11.917-16.4 11.917 6.262-19.284z"/><path d="m275.708 325.142h20.27l6.264-19.283 6.265 19.283h20.271l-16.399 11.909 6.262 19.284-16.399-11.917-16.398 11.917 6.263-19.284z"/><path d="m195.85 325.142h20.27l6.265-19.283 6.263 19.283h20.271l-16.398 11.909 6.262 19.284-16.398-11.917-16.397 11.917 6.262-19.284z"/><path d="m115.994 325.142h20.27l6.264-19.283 6.264 19.283h20.27l-16.397 11.909 6.262 19.284-16.399-11.917-16.399 11.917 6.262-19.284z"/><path d="m595.137 413.926h20.27l6.265-19.28 6.263 19.28h20.271l-16.398 11.913 6.262 19.284-16.398-11.919-16.397 11.919 6.262-19.284z"/><path d="m515.281 413.926h20.27l6.263-19.28 6.265 19.28h20.27l-16.397 11.913 6.262 19.284-16.4-11.919-16.398 11.919 6.262-19.284z"/><path d="m435.424 413.926h20.27l6.263-19.28 6.265 19.28h20.27l-16.399 11.913 6.262 19.284-16.398-11.919-16.398 11.919 6.262-19.284z"/><path d="m355.565 413.926h20.27l6.266-19.28 6.263 19.28h20.27l-16.398 11.913 6.262 19.284-16.397-11.919-16.4 11.919 6.262-19.284z"/><path d="m275.708 413.926h20.27l6.264-19.28 6.265 19.28h20.271l-16.399 11.913 6.262 19.284-16.399-11.919-16.398 11.919 6.263-19.284z"/><path d="m195.85 413.926h20.27l6.265-19.28 6.263 19.28h20.271l-16.398 11.913 6.262 19.284-16.398-11.919-16.397 11.919 6.262-19.284z"/><path d="m115.994 413.926h20.27l6.264-19.28 6.264 19.28h20.27l-16.397 11.913 6.262 19.284-16.399-11.919-16.399 11.919 6.262-19.284z"/><path d="m36.137 413.926h20.2701l6.2634-19.28 6.2645 19.28h20.2701l-16.3996 11.913 6.2622 19.284-16.3972-11.919-16.3985 11.919 6.2623-19.284z"/></g></svg>