<svg fill-rule="evenodd" height="538.768" width="1024" xmlns="http://www.w3.org/2000/svg"><path d="M1024 538.768H0V0h1024z" fill="#bf0a30"/><g fill="#fff"><path d="M1024 455.88v41.445H0V455.88zM1024 41.444v41.444H0V41.444zM1024 124.331v41.445H0V124.33zM1024 207.219v41.443H0V207.22zM1024 290.107v41.443H0v-41.443zM1024 372.993v41.445H0v-41.445z"/></g><path d="M0 0v290.107h409.839V0z" fill="#002868"/><g fill="#fff"><path d="M356.608 35.183h12.134l3.75-11.54 3.75 11.54h12.135l-9.817 7.132 3.749 11.543-9.816-7.134-9.816 7.134 3.748-11.543zM308.804 35.183h12.134l3.749-11.54 3.75 11.54h12.135l-9.816 7.132 3.749 11.543-9.818-7.134-9.816 7.134 3.748-11.543zM260.999 35.183h12.134l3.75-11.54 3.75 11.54h12.134l-9.817 7.132 3.748 11.543-9.816-7.134-9.816 7.134 3.748-11.543zM213.193 35.183h12.134l3.75-11.54 3.75 11.54h12.134l-9.816 7.132 3.749 11.543-9.816-7.134-9.818 7.134 3.749-11.543zM165.388 35.183h12.134l3.75-11.54 3.75 11.54h12.135l-9.817 7.132 3.749 11.543-9.817-7.134-9.817 7.134 3.75-11.543zM117.582 35.183h12.134l3.75-11.54 3.75 11.54h12.135l-9.817 7.132 3.75 11.543-9.817-7.134-9.816 7.134 3.749-11.543zM69.778 35.183h12.134l3.75-11.54 3.75 11.54h12.134l-9.816 7.132 3.749 11.543-9.817-7.134-9.817 7.134 3.749-11.543zM21.973 35.183h12.134l3.75-11.54 3.75 11.54H53.74l-9.817 7.132 3.749 11.543-9.816-7.134-9.817 7.134 3.749-11.543zM308.804 88.334h12.134l3.749-11.54 3.75 11.54h12.135l-9.816 7.132 3.749 11.544-9.818-7.135-9.816 7.135 3.748-11.544zM260.999 88.334h12.134l3.75-11.54 3.75 11.54h12.134l-9.817 7.132 3.748 11.544-9.816-7.135-9.816 7.135 3.748-11.544zM213.193 88.334h12.134l3.75-11.54 3.75 11.54h12.134l-9.816 7.132 3.749 11.544-9.816-7.135-9.818 7.135 3.749-11.544zM165.388 88.334h12.134l3.75-11.54 3.75 11.54h12.135l-9.817 7.132 3.749 11.544-9.817-7.135-9.817 7.135 3.75-11.544zM117.582 88.334h12.134l3.75-11.54 3.75 11.54h12.135l-9.817 7.132 3.75 11.544-9.817-7.135-9.816 7.135 3.749-11.544zM69.778 88.334h12.134l3.75-11.54 3.75 11.54h12.134l-9.816 7.132 3.749 11.544-9.817-7.135-9.817 7.135 3.749-11.544zM356.608 141.486h12.134l3.75-11.54 3.75 11.54h12.135l-9.817 7.133 3.749 11.542-9.816-7.134-9.816 7.134 3.748-11.542zM308.804 141.486h12.134l3.749-11.54 3.75 11.54h12.135l-9.816 7.133 3.749 11.542-9.818-7.134-9.816 7.134 3.748-11.542zM260.999 141.486h12.134l3.75-11.54 3.75 11.54h12.134l-9.817 7.133 3.748 11.542-9.816-7.134-9.816 7.134 3.748-11.542zM213.193 141.486h12.134l3.75-11.54 3.75 11.54h12.134l-9.816 7.133 3.749 11.542-9.816-7.134-9.818 7.134 3.749-11.542zM165.388 141.486h12.134l3.75-11.54 3.75 11.54h12.135l-9.817 7.133 3.749 11.542-9.817-7.134-9.817 7.134 3.75-11.542zM117.582 141.486h12.134l3.75-11.54 3.75 11.54h12.135l-9.817 7.133 3.75 11.542-9.817-7.134-9.816 7.134 3.749-11.542zM69.778 141.486h12.134l3.75-11.54 3.75 11.54h12.134l-9.816 7.133 3.749 11.542-9.817-7.134-9.817 7.134 3.749-11.542zM21.973 141.486h12.134l3.75-11.54 3.75 11.54H53.74l-9.817 7.133 3.749 11.542-9.816-7.134-9.817 7.134 3.749-11.542zM308.804 194.64h12.134l3.749-11.543 3.75 11.543h12.135l-9.816 7.13 3.749 11.543-9.818-7.134-9.816 7.134 3.748-11.544zM260.999 194.64h12.134l3.75-11.543 3.75 11.543h12.134l-9.817 7.13 3.748 11.543-9.816-7.134-9.816 7.134 3.748-11.544zM213.193 194.64h12.134l3.75-11.543 3.75 11.543h12.134l-9.816 7.13 3.749 11.543-9.816-7.134-9.818 7.134 3.749-11.544zM165.388 194.64h12.134l3.75-11.543 3.75 11.543h12.135l-9.817 7.13 3.749 11.543-9.817-7.134-9.817 7.134 3.75-11.544zM117.582 194.64h12.134l3.75-11.543 3.75 11.543h12.135l-9.817 7.13 3.75 11.543-9.817-7.134-9.816 7.134 3.749-11.544zM69.778 194.64h12.134l3.75-11.543 3.75 11.543h12.134l-9.816 7.13 3.749 11.543-9.817-7.134-9.817 7.134 3.749-11.544zM356.608 247.79h12.134l3.75-11.542 3.75 11.541h12.135l-9.817 7.132 3.749 11.544-9.816-7.135-9.816 7.135 3.748-11.544zM308.804 247.79h12.134l3.749-11.542 3.75 11.541h12.135l-9.816 7.132 3.749 11.544-9.818-7.135-9.816 7.135 3.748-11.544zM260.999 247.79h12.134l3.75-11.542 3.75 11.541h12.134l-9.817 7.132 3.748 11.544-9.816-7.135-9.816 7.135 3.748-11.544zM213.193 247.79h12.134l3.75-11.542 3.75 11.541h12.134l-9.816 7.132 3.749 11.544-9.816-7.135-9.818 7.135 3.749-11.544zM165.388 247.79h12.134l3.75-11.542 3.75 11.541h12.135l-9.817 7.132 3.749 11.544-9.817-7.135-9.817 7.135 3.75-11.544zM117.582 247.79h12.134l3.75-11.542 3.75 11.541h12.135l-9.817 7.132 3.75 11.544-9.817-7.135-9.816 7.135 3.749-11.544zM69.778 247.79h12.134l3.75-11.542 3.75 11.541h12.134l-9.816 7.132 3.749 11.544-9.817-7.135-9.817 7.135 3.749-11.544zM21.973 247.79h12.134l3.75-11.542 3.75 11.541H53.74l-9.817 7.132 3.749 11.544-9.816-7.135-9.817 7.135 3.749-11.544z"/></g></svg>